<?xml version="1.0" encoding="UTF-8"?>
<svg version="1.1" xmlns="http://www.w3.org/2000/svg" width="600" height="684">
<path d="M0 0 C0.78042525 -0.00410527 1.5608505 -0.00821054 2.364925 -0.0124402 C4.97783584 -0.02374151 7.59053455 -0.02087057 10.20346546 -0.01802826 C12.09678842 -0.02319781 13.9901092 -0.02922477 15.88342696 -0.03603506 C21.0851358 -0.05215608 26.28678941 -0.05575315 31.48852026 -0.05723 C37.09961748 -0.06093458 42.71068616 -0.07603135 48.32176685 -0.08950043 C60.59296106 -0.11665779 72.86414218 -0.12871594 85.13536143 -0.13752174 C92.8023101 -0.14304992 100.46925373 -0.15152541 108.136199 -0.16053009 C129.37559953 -0.18491754 150.61499475 -0.20558429 171.85440826 -0.21228027 C173.22743018 -0.21272353 174.6004521 -0.2131671 175.97347401 -0.21361098 C177.34974183 -0.21405225 178.72600964 -0.21449322 180.10227746 -0.21493387 C182.8631237 -0.21581896 185.62396993 -0.21671319 188.38481617 -0.21761322 C189.06934327 -0.217832 189.75387036 -0.21805078 190.4591407 -0.2182762 C212.63195833 -0.22553 234.80464487 -0.25734162 256.97741233 -0.30399395 C280.44283965 -0.35327535 303.90816549 -0.3806166 327.37365371 -0.38301611 C340.15549507 -0.38484637 352.93716489 -0.39626847 365.71895885 -0.43265533 C376.6079563 -0.46354489 387.49672922 -0.47364716 398.38576218 -0.45717913 C403.93566304 -0.44939595 409.4851124 -0.45107721 415.03495693 -0.47929382 C420.12896695 -0.50495437 425.22219049 -0.50221999 430.31620083 -0.4781124 C432.14608724 -0.47422949 433.97603114 -0.48020965 435.80583712 -0.49780113 C460.10480828 -0.71636717 481.51125924 7.19452066 498.99492359 24.26285553 C511.06451971 36.730731 522.68849503 54.32793736 522.50108147 72.15589619 C522.50719483 73.10396402 522.51330819 74.05203185 522.5196068 75.02882901 C522.53516174 78.19407412 522.52235859 81.35854809 522.50958729 84.52379608 C522.51491437 86.82067997 522.52198098 89.11756037 522.53063434 91.41443413 C522.54926712 97.71749426 522.54295429 104.02031952 522.53248131 110.32338941 C522.52620934 116.42572257 522.53869547 122.52799237 522.5505363 128.63031235 C522.57545356 141.88010385 522.57736355 155.12982383 522.56926219 168.37963192 C522.56218616 179.9766988 522.56213509 191.57373795 522.56912518 203.17080498 C522.57003651 204.7271362 522.57094727 206.28346743 522.57185746 207.83979866 C522.57324062 210.18513291 522.57463171 212.53046716 522.5760436 214.8758014 C522.58902256 236.67785577 522.59414104 258.47990086 522.58250999 280.28195667 C522.58207202 281.10362184 522.58163405 281.925287 522.58118281 282.77185111 C522.57757608 289.44410176 522.57374126 296.11635228 522.56989188 302.7886028 C522.5550467 328.81090239 522.56382064 354.833097 522.59184742 380.85538483 C522.62328672 410.10195567 522.63824158 439.34846437 522.62804741 468.59505242 C522.62701065 471.7145212 522.62602342 474.83398999 522.6250639 477.95345879 C522.62469057 479.10556876 522.62469057 479.10556876 522.62430969 480.28095368 C522.62087193 491.86728737 522.63016707 503.45356613 522.64583492 515.03988838 C522.66361671 528.2196531 522.66371671 541.39928428 522.64048327 554.57904331 C522.62909548 561.30267526 522.62618744 568.02602477 522.64478397 574.7496624 C522.66159686 580.90770123 522.65522574 587.06526966 522.63056719 593.22327807 C522.62568625 595.44795815 522.62919305 597.67267623 522.64205462 599.89732448 C522.7265336 615.64947493 520.90579548 627.17000223 512.05742359 640.57535553 C511.6533025 641.21279694 511.2491814 641.85023834 510.83281422 642.50699615 C509.58566644 644.44940427 508.29929697 646.3584704 506.99492359 648.26285553 C506.5495525 648.9315567 506.1041814 649.60025787 505.64531422 650.28922272 C501.92619452 655.60334107 497.67395378 659.20231804 492.36992359 662.88785553 C491.17786304 663.72860626 491.17786304 663.72860626 489.96172047 664.58634186 C474.22533885 675.49828016 461.00403218 677.56354444 442.1329546 677.55046844 C440.20531786 677.55635794 438.27768356 677.56309837 436.35005248 677.57061332 C431.06759163 677.58863103 425.78518073 677.59420105 420.50269294 677.5976001 C414.79969747 677.60337143 409.09673374 677.62049844 403.39375782 677.63594818 C389.6313322 677.67064984 375.86890935 677.68627905 362.10644954 677.70007148 C355.6202939 677.70703938 349.13414143 677.71619467 342.64798832 677.72517967 C321.07990828 677.75437454 299.51183363 677.77922969 277.94373608 677.7898035 C276.55033621 677.79049988 275.15693635 677.79119756 273.76353649 677.79189652 C272.72708825 677.79241481 272.72708825 677.79241481 271.66970167 677.79294358 C268.16922225 677.79469692 264.66874284 677.7964683 261.16826344 677.79825592 C260.12626538 677.79878023 260.12626538 677.79878023 259.06321685 677.79931513 C236.54295821 677.81083718 214.02286681 677.85019036 191.5026773 677.90600223 C167.66879397 677.96496151 143.83501853 677.9983241 120.00105917 678.00281566 C107.0181535 678.00589482 94.03548189 678.02034687 81.05264378 678.06409645 C69.9977983 678.1012453 58.94325032 678.11435319 47.88835137 678.09639157 C42.25177901 678.08795399 36.61581379 678.09069222 30.97932148 678.12421036 C25.8109199 678.15467212 20.64357166 678.15231154 15.47516353 678.12472235 C13.61380556 678.12040389 11.75237292 678.12771993 9.89112477 678.14839537 C-2.71938833 678.27962665 -11.83724005 676.12057232 -23.00507641 670.26285553 C-24.80331344 669.40593348 -26.6034702 668.55299721 -28.40742016 667.70816803 C-37.18050203 663.29977112 -44.84391995 659.11650359 -51.00507641 651.26285553 C-51.61270824 650.52108063 -51.61270824 650.52108063 -52.23261547 649.76432037 C-59.37931773 640.96530906 -63.55748285 632.01273211 -67.00507641 621.26285553 C-67.50007641 619.77785553 -67.50007641 619.77785553 -68.00507641 618.26285553 C-68.10575017 615.26308899 -68.14800593 612.2864134 -68.14488411 609.28638172 C-68.14931124 607.88534121 -68.14931124 607.88534121 -68.15382782 606.45599684 C-68.1625549 603.2965813 -68.16410274 600.13720221 -68.16570568 596.97777557 C-68.17043423 594.7014492 -68.1755848 592.42512367 -68.18112332 590.14879912 C-68.19506131 583.86999703 -68.20262205 577.59120075 -68.20909631 571.31238711 C-68.21627344 565.24316636 -68.2280828 559.17395601 -68.23957129 553.1047422 C-68.27144272 536.06335846 -68.29126361 519.02196558 -68.30885682 501.980562 C-68.31362462 497.36389946 -68.31863332 492.7472372 -68.32366204 488.13057494 C-68.35471374 459.46957641 -68.38133012 430.80857554 -68.39808083 402.14756489 C-68.40201804 395.50541238 -68.40602988 388.86325991 -68.41010571 382.22110748 C-68.41060737 381.39590543 -68.41110904 380.57070339 -68.41162591 379.72049522 C-68.42803376 352.98233283 -68.46647452 326.24426212 -68.51739281 299.50614482 C-68.56965099 272.01423708 -68.6024009 244.52237814 -68.60965836 217.03041973 C-68.61068691 213.1445823 -68.61192322 209.25874496 -68.61327839 205.37290764 C-68.61353643 204.60816054 -68.61379446 203.84341344 -68.61406032 203.05549219 C-68.61874965 190.76357806 -68.64366152 178.47178494 -68.67602982 166.17991605 C-68.70811713 153.8140022 -68.71801651 141.44822416 -68.70559787 129.08227364 C-68.6994671 122.38661207 -68.70361695 115.69137475 -68.73376751 108.99574661 C-68.76117337 102.85943286 -68.76059751 96.72376565 -68.73825706 90.58743723 C-68.73504042 88.37392294 -68.74186533 86.16036501 -68.76005428 83.94692311 C-68.93211578 61.64671065 -62.50156526 43.56402637 -48.00507641 26.26285553 C-47.38890453 25.44945709 -46.77273266 24.63605865 -46.13788891 23.79801178 C-43.82538273 21.0492636 -41.37399833 18.93848674 -38.56757641 16.70035553 C-37.64074047 15.95656647 -36.71390453 15.2127774 -35.75898266 14.44644928 C-34.39579906 13.36557037 -34.39579906 13.36557037 -33.00507641 12.26285553 C-31.79271313 11.23225006 -31.79271313 11.23225006 -30.55585766 10.18082428 C-27.70443071 8.03679575 -24.87699581 6.61092348 -21.63007641 5.13785553 C-20.54984203 4.6402774 -19.46960766 4.14269928 -18.35663891 3.63004303 C-12.18664181 1.11314445 -6.64671521 -0.03287552 0 0 Z " fill="#343080" transform="translate(73.00507640838623,3.7371444702148438)"/>
<path d="M0 0 C0.96321671 -0.00203934 0.96321671 -0.00203934 1.94589233 -0.00411987 C4.13621818 -0.00261088 6.32548199 0.02310564 8.515625 0.05078125 C10.08837765 0.0616251 11.66113163 0.07227917 13.23388672 0.08276367 C19.0786243 0.13567491 24.92187115 0.24581155 30.765625 0.36328125 C32.0383728 0.38861938 33.31112061 0.41395752 34.62243652 0.44006348 C43.24854177 0.61540199 51.87348006 0.82327564 60.49816895 1.05801392 C63.42961981 1.13779081 66.36113047 1.21177489 69.29284668 1.28109741 C73.45367093 1.380637 77.613374 1.50536468 81.7734375 1.6328125 C83.67420547 1.67524582 83.67420547 1.67524582 85.6133728 1.71853638 C87.35767075 1.77822098 87.35767075 1.77822098 89.13720703 1.83911133 C90.6652446 1.88241325 90.6652446 1.88241325 92.22415161 1.92658997 C95.12685355 2.42534972 96.075983 2.98165916 97.765625 5.36328125 C98.12207031 8.28540039 98.12207031 8.28540039 98.09375 11.8984375 C98.09223938 12.55439911 98.09072876 13.21036072 98.08917236 13.88619995 C98.07969482 16.06644738 98.04787061 18.24576034 98.015625 20.42578125 C98.0036317 21.98575162 97.99258109 23.5457295 97.98242188 25.10571289 C97.90175644 34.84363683 97.61225333 44.56886192 97.265625 54.30078125 C96.66973685 71.45513718 96.61716918 88.61268772 96.58395386 105.77553177 C96.57817768 108.03021749 96.568486 110.2848538 96.55761719 112.53952026 C96.54074751 116.15400338 96.53474604 119.76836052 96.53642845 123.38288116 C96.53520364 125.36096104 96.52454367 127.33902819 96.51350403 129.31707764 C96.51472994 145.90850918 96.51472994 145.90850918 101.765625 161.36328125 C102.54385085 163.5548069 103.27340895 165.76422949 103.953125 167.98828125 C104.29730469 169.09429687 104.64148438 170.2003125 104.99609375 171.33984375 C105.765625 174.36328125 105.765625 174.36328125 105.765625 178.36328125 C106.425625 178.36328125 107.085625 178.36328125 107.765625 178.36328125 C108.43970808 179.63019632 109.10462997 180.90198874 109.765625 182.17578125 C110.136875 182.88347656 110.508125 183.59117187 110.890625 184.3203125 C111.765625 186.36328125 111.765625 186.36328125 111.765625 189.36328125 C112.425625 189.36328125 113.085625 189.36328125 113.765625 189.36328125 C114.01957031 190.13671875 114.27351563 190.91015625 114.53515625 191.70703125 C116.88918774 198.83402649 116.88918774 198.83402649 119.515625 205.86328125 C120.765625 209.36328125 120.765625 209.36328125 120.765625 213.36328125 C121.425625 213.36328125 122.085625 213.36328125 122.765625 213.36328125 C122.765625 214.35328125 122.765625 215.34328125 122.765625 216.36328125 C123.425625 216.36328125 124.085625 216.36328125 124.765625 216.36328125 C125.755625 219.82828125 125.755625 219.82828125 126.765625 223.36328125 C127.425625 223.36328125 128.085625 223.36328125 128.765625 223.36328125 C131.610283 228.06315099 132.13978558 231.8263469 132.26171875 237.19140625 C132.42800781 237.908125 132.59429687 238.62484375 132.765625 239.36328125 C134.07441508 240.07692735 135.40994389 240.74332082 136.765625 241.36328125 C137.671875 243.1328125 137.671875 243.1328125 138.265625 245.17578125 C139.38230832 248.97397387 141.2972236 251.28812197 143.765625 254.36328125 C144.83847938 256.33586437 145.85921655 258.33761664 146.828125 260.36328125 C149.51579052 266.02228839 149.51579052 266.02228839 152.765625 271.36328125 C153.755625 271.69328125 154.745625 272.02328125 155.765625 272.36328125 C155.8275 271.53828125 155.889375 270.71328125 155.953125 269.86328125 C156.84506462 266.0210798 158.30477601 263.72071947 160.44921875 260.4765625 C162.14373905 257.75627918 163.34514059 254.93014718 164.6015625 251.98828125 C166.06356522 248.69141605 167.6541554 245.46378241 169.265625 242.23828125 C169.8328125 241.10132813 170.4 239.964375 170.984375 238.79296875 C172.19192515 236.46790508 173.46716366 234.17699419 174.80078125 231.921875 C176.90646205 228.2782463 178.31426015 224.51245345 179.703125 220.55078125 C182.45528022 212.96793834 185.65457745 205.84380171 189.828125 198.92578125 C192.05883687 195.13266794 193.41507951 191.06508149 194.8359375 186.9140625 C195.67086405 184.62327662 196.62645718 182.51560274 197.765625 180.36328125 C198.425625 180.36328125 199.085625 180.36328125 199.765625 180.36328125 C199.848125 179.20828125 199.930625 178.05328125 200.015625 176.86328125 C200.29908762 172.89480452 201.9006858 169.9973942 203.70068359 166.53076172 C205.42530454 163.02063224 206.68231156 159.36939226 207.953125 155.67578125 C208.21287109 154.94294922 208.47261719 154.21011719 208.74023438 153.45507812 C210.02227488 149.78122046 211.13482373 146.21648899 211.765625 142.36328125 C212.425625 142.36328125 213.085625 142.36328125 213.765625 142.36328125 C213.76424231 141.30060673 213.76424231 141.30060673 213.76283169 140.21646404 C213.74076257 122.99091873 213.72420665 105.765377 213.71381283 88.53982067 C213.70865306 80.2097288 213.70161642 71.87964636 213.69018555 63.54956055 C213.68022898 56.29040515 213.67376924 49.03125658 213.67153651 41.77209455 C213.67023106 37.92722403 213.66715564 34.08237304 213.65989494 30.23750877 C213.65311941 26.62033305 213.65101118 23.00318496 213.65251732 19.38600349 C213.65211003 17.42206597 213.64672279 15.45813147 213.64120483 13.49420166 C213.6425795 12.32892441 213.64395416 11.16364716 213.64537048 9.96305847 C213.64398779 8.44071736 213.64398779 8.44071736 213.64257717 6.88762188 C213.765625 4.36328125 213.765625 4.36328125 214.765625 1.36328125 C231.99836492 1.06327735 249.23122174 0.78506046 266.46488953 0.54403687 C273.74398098 0.44150273 281.02239312 0.32412259 288.30070496 0.17474365 C291.7499432 0.10811661 295.19919107 0.06099797 298.64883423 0.02124023 C300.17484675 -0.0005868 301.70076074 -0.03122988 303.22640991 -0.07104492 C305.29592582 -0.12391629 307.36350618 -0.14613576 309.43359375 -0.16015625 C310.55016357 -0.17997559 311.6667334 -0.19979492 312.81713867 -0.22021484 C316.97692496 0.60299367 318.34352814 1.89381359 320.765625 5.36328125 C321.4344109 8.54450353 321.37278078 11.62374459 321.2890625 14.86328125 C321.28435944 15.77658203 321.27965637 16.68988281 321.27481079 17.63085938 C321.25351002 20.54244175 321.19694079 23.4521882 321.140625 26.36328125 C321.12411142 28.32159734 321.10976502 30.27993297 321.09765625 32.23828125 C321.06376297 35.83227428 321.02851673 39.42604611 320.95849609 43.01953125 C320.93920547 44.09944336 320.93920547 44.09944336 320.91952515 45.20117188 C320.765625 47.36328125 320.765625 47.36328125 320.26541138 49.63598633 C319.61111398 53.20643573 319.59668849 56.72667759 319.57617188 60.34375 C319.56787857 61.13314468 319.55958527 61.92253937 319.55104065 62.7358551 C319.53368475 64.44583164 319.51850589 66.15583138 319.50526428 67.86584473 C319.48412064 70.58347513 319.45710119 73.30099222 319.42858887 76.01855469 C319.36900345 81.80008556 319.31689808 87.58167153 319.265625 93.36328125 C319.2060968 100.04005915 319.1434132 106.71678278 319.07374573 113.39346313 C319.04749728 116.05029524 319.02647928 118.70713375 319.0057373 121.36401367 C318.92115023 130.4095077 318.63408725 139.35279506 317.765625 148.36328125 C317.105625 148.36328125 316.445625 148.36328125 315.765625 148.36328125 C315.70375 149.62140625 315.641875 150.87953125 315.578125 152.17578125 C315.0360352 157.23794338 313.18715751 161.22304393 310.9765625 165.765625 C309.50361338 168.92533843 308.59153047 171.98457704 307.765625 175.36328125 C307.105625 175.36328125 306.445625 175.36328125 305.765625 175.36328125 C305.64316406 176.07871094 305.52070313 176.79414063 305.39453125 177.53125 C304.75427125 180.41440838 303.83010944 182.94920598 302.703125 185.67578125 C302.34089844 186.55878906 301.97867187 187.44179688 301.60546875 188.3515625 C301.18974609 189.34736328 301.18974609 189.34736328 300.765625 190.36328125 C300.105625 190.36328125 299.445625 190.36328125 298.765625 190.36328125 C298.70375 191.64203125 298.641875 192.92078125 298.578125 194.23828125 C298.0558857 199.16447887 296.277016 202.88602448 293.921875 207.19921875 C292.64657018 209.44019024 292.64657018 209.44019024 291.765625 212.36328125 C291.105625 212.36328125 290.445625 212.36328125 289.765625 212.36328125 C289.56066406 212.97816406 289.35570312 213.59304688 289.14453125 214.2265625 C288.01822917 217.60546875 286.89192708 220.984375 285.765625 224.36328125 C285.105625 224.36328125 284.445625 224.36328125 283.765625 224.36328125 C283.6625 225.08515625 283.559375 225.80703125 283.453125 226.55078125 C282.69437843 229.65474449 281.44296 231.6537401 279.765625 234.36328125 C279.02782424 236.06343082 278.2914234 237.7643647 277.58203125 239.4765625 C276.71477006 241.48080726 275.75572466 243.41696366 274.765625 245.36328125 C272.93863967 248.96862492 271.32547961 252.63319413 269.765625 256.36328125 C269.229375 257.55953125 268.693125 258.75578125 268.140625 259.98828125 C266.97864636 262.84041065 266.22455933 265.33431464 265.765625 268.36328125 C265.105625 268.36328125 264.445625 268.36328125 263.765625 268.36328125 C263.4253125 269.53890625 263.4253125 269.53890625 263.078125 270.73828125 C260.08881899 278.99445976 255.56767809 286.61308866 251.40234375 294.3203125 C248.3552342 299.98546367 245.66064234 305.5211745 243.47265625 311.5703125 C242.50769775 314.01736194 241.1493795 316.12798552 239.765625 318.36328125 C238.05990323 321.67740132 236.4090793 325.01790985 234.765625 328.36328125 C234.105625 328.36328125 233.445625 328.36328125 232.765625 328.36328125 C232.20718317 330.59178027 231.6553091 332.82115871 231.1171875 335.0546875 C230.87742187 336.00214844 230.63765625 336.94960938 230.390625 337.92578125 C230.15601563 338.87582031 229.92140625 339.82585937 229.6796875 340.8046875 C228.72692131 343.4716185 227.80278139 344.48408619 225.765625 346.36328125 C225.435625 347.35328125 225.105625 348.34328125 224.765625 349.36328125 C224.105625 349.36328125 223.445625 349.36328125 222.765625 349.36328125 C222.518125 350.00265625 222.270625 350.64203125 222.015625 351.30078125 C221.00053239 353.78775814 219.93319154 356.22854578 218.828125 358.67578125 C217.54631776 361.5211116 216.40038007 364.34918951 215.390625 367.30078125 C213.8765039 371.45638537 211.64382833 375.03426903 209.3046875 378.7734375 C207.34024384 382.07908761 205.77118041 385.51721678 204.234375 389.0390625 C202.25029944 392.17875653 199.94201417 394.47345468 196.765625 396.36328125 C193.76543104 396.83439266 191.34781711 397.02053371 188.36108398 396.96264648 C187.12823669 396.96856056 187.12823669 396.96856056 185.8704834 396.97459412 C183.16693194 396.98128042 180.46508816 396.95219477 177.76171875 396.921875 C175.87655464 396.91762217 173.99138528 396.91529602 172.10621643 396.91481018 C168.1611446 396.90865271 164.2166423 396.88599014 160.27172852 396.8503418 C155.21880225 396.80503914 150.1663909 396.79031358 145.1132803 396.78660488 C141.22275226 396.78217314 137.33233191 396.76686419 133.44185066 396.74772835 C131.57875515 396.7388594 129.71564821 396.73212298 127.85253716 396.72756767 C125.24841955 396.71850918 122.64476354 396.69610519 120.04077148 396.66967773 C119.27336136 396.66901306 118.50595123 396.66834839 117.71528625 396.66766357 C113.64280283 396.61072044 110.40017622 396.25974002 106.765625 394.36328125 C105.359375 392.76953125 105.359375 392.76953125 104.265625 390.86328125 C103.85957031 390.15816406 103.45351562 389.45304687 103.03515625 388.7265625 C102.61621094 387.94667969 102.19726562 387.16679688 101.765625 386.36328125 C101.05986328 385.05423828 101.05986328 385.05423828 100.33984375 383.71875 C96.765625 376.84215449 96.765625 376.84215449 96.765625 373.36328125 C96.105625 373.36328125 95.445625 373.36328125 94.765625 373.36328125 C94.39050781 372.60144531 94.01539063 371.83960938 93.62890625 371.0546875 C91.25315999 366.26130526 88.88182712 361.49555912 86.203125 356.86328125 C83.79056192 352.59725702 81.99436737 348.1660314 80.15625 343.62890625 C76.88789581 335.95378236 73.09528447 328.49239177 68.765625 321.36328125 C68.01807442 319.99818889 67.28716722 318.62376606 66.578125 317.23828125 C66.23394531 316.57570313 65.88976562 315.913125 65.53515625 315.23046875 C64.765625 313.36328125 64.765625 313.36328125 64.765625 310.36328125 C64.105625 310.36328125 63.445625 310.36328125 62.765625 310.36328125 C59.765625 303.73828125 59.765625 303.73828125 59.765625 300.36328125 C59.105625 300.36328125 58.445625 300.36328125 57.765625 300.36328125 C57.765625 299.37328125 57.765625 298.38328125 57.765625 297.36328125 C57.105625 297.36328125 56.445625 297.36328125 55.765625 297.36328125 C55.45625 295.47609375 55.45625 295.47609375 55.140625 293.55078125 C54.0208194 288.36344647 51.68075485 284.19499733 49.0078125 279.6484375 C47.765625 277.36328125 47.765625 277.36328125 47.765625 275.36328125 C47.105625 275.36328125 46.445625 275.36328125 45.765625 275.36328125 C45.05327291 273.70112637 44.34149725 272.03872181 43.6328125 270.375 C43.06602631 269.06015817 42.48831749 267.74995698 41.8984375 266.4453125 C40.60914935 263.5659023 39.765625 261.55648567 39.765625 258.36328125 C39.105625 258.36328125 38.445625 258.36328125 37.765625 258.36328125 C37.35054687 257.36683594 36.93546875 256.37039063 36.5078125 255.34375 C34.80249378 251.36433978 32.86333089 247.52768195 30.890625 243.67578125 C22.46615162 227.02460119 22.46615162 227.02460119 20.765625 219.36328125 C20.105625 219.36328125 19.445625 219.36328125 18.765625 219.36328125 C17.775625 215.73328125 16.785625 212.10328125 15.765625 208.36328125 C15.105625 208.36328125 14.445625 208.36328125 13.765625 208.36328125 C10.77815655 203.20310847 9.74021172 198.16493864 8.765625 192.36328125 C8.105625 192.36328125 7.445625 192.36328125 6.765625 192.36328125 C3.93188422 186.69579968 3.13338668 181.66595564 2.765625 175.36328125 C2.105625 175.36328125 1.445625 175.36328125 0.765625 175.36328125 C0.765625 174.37328125 0.765625 173.38328125 0.765625 172.36328125 C0.105625 172.36328125 -0.554375 172.36328125 -1.234375 172.36328125 C-4.34965633 165.55008965 -6.70472172 159.19037114 -7.8359375 151.7734375 C-8.32079759 148.84050932 -9.21456708 146.15075624 -10.234375 143.36328125 C-11.28230662 139.97079217 -11.36115243 136.8587241 -11.36376953 133.31542969 C-11.36686127 132.07857925 -11.369953 130.84172882 -11.37313843 129.56739807 C-11.37132487 128.20248389 -11.36933554 126.83756994 -11.3671875 125.47265625 C-11.36837443 124.03771433 -11.36989809 122.60277266 -11.37173462 121.16783142 C-11.37551655 116.48296262 -11.36785662 111.79814129 -11.359375 107.11328125 C-11.35710358 105.5046082 -11.35486571 103.8959351 -11.35266113 102.28726196 C-11.33609153 91.47202533 -11.29600194 80.65696172 -11.24552917 69.84183502 C-11.23452263 67.39608547 -11.22479922 64.95033405 -11.2154541 62.50457764 C-11.17970459 53.426797 -11.12012226 44.34969567 -11.02484131 35.27233887 C-10.99591169 32.46039636 -10.97607782 29.64861184 -10.96392822 26.83654785 C-10.94636751 22.93233364 -10.8968608 19.02890124 -10.84375 15.125 C-10.84251129 13.96902817 -10.84127258 12.81305634 -10.83999634 11.62205505 C-10.82028778 10.57074905 -10.80057922 9.51944305 -10.78027344 8.4362793 C-10.77139099 7.52315475 -10.76250854 6.61003021 -10.75335693 5.66923523 C-10.234375 3.36328125 -10.234375 3.36328125 -8.37744141 1.56948853 C-5.46782238 -0.06816658 -3.33441362 -0.00886048 0 0 Z " fill="#FDFDFD" transform="translate(145.234375,141.63671875)"/>
<path d="M0 0 C3.44923824 -0.06662705 6.89848612 -0.11374568 10.34812927 -0.15350342 C11.87414179 -0.17533045 13.40005578 -0.20597354 14.92570496 -0.24578857 C16.99522086 -0.29865995 19.06280122 -0.32087941 21.13288879 -0.3348999 C22.24945862 -0.35471924 23.36602844 -0.37453857 24.51643372 -0.3949585 C28.67622001 0.42825002 30.04282318 1.71906994 32.46492004 5.1885376 C33.13370594 8.36975988 33.07207582 11.44900093 32.98835754 14.6885376 C32.98365448 15.60183838 32.97895142 16.51513916 32.97410583 17.45611572 C32.95280506 20.3676981 32.89623583 23.27744455 32.83992004 26.1885376 C32.82340647 28.14685368 32.80906007 30.10518932 32.79695129 32.0635376 C32.76305801 35.65753063 32.72781177 39.25130246 32.65779114 42.8447876 C32.64493073 43.564729 32.63207031 44.28467041 32.61882019 45.02642822 C32.46492004 47.1885376 32.46492004 47.1885376 31.96470642 49.46124268 C31.31040902 53.03169208 31.29598354 56.55193394 31.27546692 60.16900635 C31.26717361 60.95840103 31.25888031 61.74779572 31.25033569 62.56111145 C31.23297979 64.27108799 31.21780093 65.98108772 31.20455933 67.69110107 C31.18341568 70.40873148 31.15639623 73.12624857 31.12788391 75.84381104 C31.0682985 81.62534191 31.01619312 87.40692788 30.96492004 93.1885376 C30.90539184 99.8653155 30.84270824 106.54203913 30.77304077 113.21871948 C30.74679232 115.87555159 30.72577432 118.5323901 30.70503235 121.18927002 C30.62044528 130.23476405 30.33338229 139.17805141 29.46492004 148.1885376 C28.80492004 148.1885376 28.14492004 148.1885376 27.46492004 148.1885376 C27.46492004 149.8385376 27.46492004 151.4885376 27.46492004 153.1885376 C27.13492004 153.1885376 26.80492004 153.1885376 26.46492004 153.1885376 C26.33992004 146.5635376 26.33992004 146.5635376 27.46492004 143.1885376 C27.60626141 141.0203306 27.68963591 138.8482159 27.74397278 136.67608643 C27.7618516 136.0053755 27.77973042 135.33466457 27.79815102 134.64362907 C27.85717676 132.3735352 27.90919813 130.10333802 27.96101379 127.83306885 C28.00158545 126.19445725 28.04239957 124.55585164 28.08343506 122.91725159 C28.62759589 100.73501915 29.03765941 78.54941885 29.46070862 56.36462402 C29.57369214 50.45629886 29.68833307 44.54800584 29.80281067 38.63970947 C30.02508333 27.1560154 30.24560298 15.67228847 30.46492004 4.1885376 C29.80492004 4.1885376 29.14492004 4.1885376 28.46492004 4.1885376 C28.46492004 3.5285376 28.46492004 2.8685376 28.46492004 2.1885376 C24.88129229 2.32764247 21.29810506 2.47599172 17.71492004 2.6260376 C16.69913879 2.665354 15.68335754 2.70467041 14.63679504 2.74517822 C13.65710754 2.78707275 12.67742004 2.82896729 11.66804504 2.87213135 C10.76731262 2.90878906 9.8665802 2.94544678 8.93855286 2.98321533 C6.56741493 3.09471526 6.56741493 3.09471526 4.76899719 3.6942749 C1.55847798 4.38298443 -1.60714613 4.31916102 -4.87394714 4.30206299 C-5.97209999 4.30228203 -5.97209999 4.30228203 -7.09243774 4.30250549 C-9.50564058 4.30181036 -11.91876565 4.29403667 -14.33195496 4.28619385 C-16.00775612 4.28432825 -17.68355783 4.28290502 -19.35935974 4.28190613 C-23.76521822 4.27809212 -28.17104361 4.26827136 -32.57688904 4.25720215 C-37.07466688 4.24696403 -41.57245007 4.24240336 -46.07023621 4.23736572 C-54.89186531 4.22664809 -63.71346988 4.20958507 -72.53507996 4.1885376 C-72.52255188 4.8106311 -72.5100238 5.43272461 -72.49711609 6.07366943 C-71.88526642 36.74801043 -71.42726489 67.41717032 -71.41169739 98.09805298 C-71.41008979 100.17582683 -71.40653977 102.25358942 -71.4025116 104.33135986 C-71.39551916 108.24209765 -71.39810087 112.15279489 -71.40226746 116.0635376 C-71.40028351 117.20286743 -71.39829956 118.34219727 -71.39625549 119.51605225 C-71.45791975 141.02789669 -71.45791975 141.02789669 -75.49211121 148.84869385 C-77.19188983 152.66205488 -77.89759436 156.70475751 -78.72648621 160.7822876 C-79.12674011 161.97338135 -79.12674011 161.97338135 -79.53507996 163.1885376 C-80.52507996 163.5185376 -81.51507996 163.8485376 -82.53507996 164.1885376 C-81.71299528 159.47336226 -80.3424376 154.95374114 -78.97257996 150.3760376 C-78.62163269 149.19364502 -78.62163269 149.19364502 -78.26359558 147.98736572 C-77.68939591 146.05383623 -77.11250663 144.12110583 -76.53507996 142.1885376 C-75.87507996 142.1885376 -75.21507996 142.1885376 -74.53507996 142.1885376 C-74.53600175 141.48008792 -74.53692354 140.77163824 -74.53787327 140.04172039 C-74.55994239 122.81617507 -74.57649831 105.59063334 -74.58689213 88.36507702 C-74.59205189 80.03498515 -74.59908853 71.70490271 -74.61051941 63.37481689 C-74.62047598 56.1156615 -74.62693571 48.85651293 -74.62916845 41.5973509 C-74.6304739 37.75248038 -74.63354932 33.90762939 -74.64081001 30.06276512 C-74.64758555 26.4455894 -74.64969377 22.82844131 -74.64818764 19.21125984 C-74.64859493 17.24732232 -74.65398216 15.28338782 -74.65950012 13.31945801 C-74.65812546 12.15418076 -74.65675079 10.9889035 -74.65533447 9.78831482 C-74.65625627 8.77342074 -74.65717806 7.75852667 -74.65812778 6.71287823 C-74.53507996 4.1885376 -74.53507996 4.1885376 -73.53507996 1.1885376 C-56.30234003 0.8885337 -39.06948322 0.61031681 -21.83581543 0.36929321 C-14.55672397 0.26675908 -7.27831184 0.14937893 0 0 Z " fill="#E1E1EF" transform="translate(433.5350799560547,141.81146240234375)"/>
<path d="M0 0 C3.44923824 -0.06662705 6.89848612 -0.11374568 10.34812927 -0.15350342 C11.87414179 -0.17533045 13.40005578 -0.20597354 14.92570496 -0.24578857 C16.99522086 -0.29865995 19.06280122 -0.32087941 21.13288879 -0.3348999 C22.24945862 -0.35471924 23.36602844 -0.37453857 24.51643372 -0.3949585 C28.67622001 0.42825002 30.04282318 1.71906994 32.46492004 5.1885376 C33.13370594 8.36975988 33.07207582 11.44900093 32.98835754 14.6885376 C32.98365448 15.60183838 32.97895142 16.51513916 32.97410583 17.45611572 C32.95280506 20.3676981 32.89623583 23.27744455 32.83992004 26.1885376 C32.82340647 28.14685368 32.80906007 30.10518932 32.79695129 32.0635376 C32.76305801 35.65753063 32.72781177 39.25130246 32.65779114 42.8447876 C32.64493073 43.564729 32.63207031 44.28467041 32.61882019 45.02642822 C32.46492004 47.1885376 32.46492004 47.1885376 31.96470642 49.46124268 C31.31040902 53.03169208 31.29598354 56.55193394 31.27546692 60.16900635 C31.26717361 60.95840103 31.25888031 61.74779572 31.25033569 62.56111145 C31.23297979 64.27108799 31.21780093 65.98108772 31.20455933 67.69110107 C31.18341568 70.40873148 31.15639623 73.12624857 31.12788391 75.84381104 C31.0682985 81.62534191 31.01619312 87.40692788 30.96492004 93.1885376 C30.90539184 99.8653155 30.84270824 106.54203913 30.77304077 113.21871948 C30.74679232 115.87555159 30.72577432 118.5323901 30.70503235 121.18927002 C30.62044528 130.23476405 30.33338229 139.17805141 29.46492004 148.1885376 C28.80492004 148.1885376 28.14492004 148.1885376 27.46492004 148.1885376 C27.46492004 149.8385376 27.46492004 151.4885376 27.46492004 153.1885376 C27.13492004 153.1885376 26.80492004 153.1885376 26.46492004 153.1885376 C26.33992004 146.5635376 26.33992004 146.5635376 27.46492004 143.1885376 C27.60626141 141.0203306 27.68963591 138.8482159 27.74397278 136.67608643 C27.7618516 136.0053755 27.77973042 135.33466457 27.79815102 134.64362907 C27.85717676 132.3735352 27.90919813 130.10333802 27.96101379 127.83306885 C28.00158545 126.19445725 28.04239957 124.55585164 28.08343506 122.91725159 C28.62759589 100.73501915 29.03765941 78.54941885 29.46070862 56.36462402 C29.57369214 50.45629886 29.68833307 44.54800584 29.80281067 38.63970947 C30.02508333 27.1560154 30.24560298 15.67228847 30.46492004 4.1885376 C29.80492004 4.1885376 29.14492004 4.1885376 28.46492004 4.1885376 C28.46492004 3.5285376 28.46492004 2.8685376 28.46492004 2.1885376 C-5.19507996 2.1885376 -38.85507996 2.1885376 -73.53507996 2.1885376 C-73.53507996 1.8585376 -73.53507996 1.5285376 -73.53507996 1.1885376 C-56.30234003 0.8885337 -39.06948322 0.61031681 -21.83581543 0.36929321 C-14.55672397 0.26675908 -7.27831184 0.14937893 0 0 Z " fill="#9D9CC0" transform="translate(433.5350799560547,141.81146240234375)"/>
<path d="M0 0 C0.33 0 0.66 0 1 0 C0.99815641 0.70807265 0.99631283 1.41614531 0.99441338 2.14567471 C0.95018735 19.39835287 0.91712059 36.65101658 0.89637566 53.90373898 C0.88607615 62.24712603 0.87204123 70.59047517 0.84912109 78.93383789 C0.82914656 86.20843312 0.81627393 93.48300089 0.81182301 100.75762278 C0.8092225 104.60718186 0.80313794 108.45666238 0.78853989 112.30619621 C0.77489168 115.93490327 0.77079188 119.56349994 0.77378464 123.19223022 C0.77297834 125.14786696 0.76225477 127.10349187 0.75115967 129.05909729 C0.77071256 137.46490738 1.67432182 144.82191519 4.625 152.75 C5.74117617 155.95269646 6.33204135 158.56890601 6 162 C3.46890953 159.77207636 2.42000103 157.9613748 1.4375 154.75 C1.06818359 153.54923828 1.06818359 153.54923828 0.69140625 152.32421875 C0.34916016 151.17373047 0.34916016 151.17373047 0 150 C-0.37125 148.865625 -0.7425 147.73125 -1.125 146.5625 C-3.42473904 137.19927677 -3.16288488 127.54995416 -3.16796875 117.96484375 C-3.17119305 116.51770497 -3.17455794 115.07056649 -3.17805481 113.62342834 C-3.18401019 110.60026293 -3.18589858 107.57712594 -3.18530273 104.55395508 C-3.18522169 101.48879061 -3.19213423 98.42377627 -3.20581055 95.35864258 C-3.33508589 65.98409484 -3.33508589 65.98409484 -1.47875977 53.19799805 C-0.19488226 43.38384303 -0.51346848 33.31852415 -0.375 23.4375 C-0.33671659 21.15428368 -0.29765931 18.8710802 -0.2578125 16.58789062 C-0.16297077 11.05870973 -0.07761477 5.52944818 0 0 Z " fill="#313069" transform="translate(244,149)"/>
<path d="M0 0 C0 0.33 0 0.66 0 1 C-0.845625 1.17015625 -1.69125 1.3403125 -2.5625 1.515625 C-8.51515161 2.78732784 -13.90058353 4.08107542 -19.2421875 7.03125 C-23.19809695 9.21139565 -27.50735206 10.79960084 -31.6875 12.5 C-42.51533514 18.01843335 -51.05809356 29.04190474 -59 38 C-59.66 37.67 -60.32 37.34 -61 37 C-57.24135213 26.17197814 -47.81599812 18.74557432 -39 12 C-38.19820312 11.32066406 -37.39640625 10.64132812 -36.5703125 9.94140625 C-25.46917495 1.55650448 -13.48423714 -0.33663838 0 0 Z " fill="#46447C" transform="translate(79,4)"/>
<path d="M0 0 C9.47739722 -0.02347221 18.954784 -0.04108861 28.43220425 -0.05181217 C32.835917 -0.05696646 37.23960947 -0.06392312 41.64331055 -0.07543945 C61.45449593 -0.12592753 81.21075032 -0.07789872 101 1 C101 1.66 101 2.32 101 3 C67.34 3 33.68 3 -1 3 C-0.67 2.01 -0.34 1.02 0 0 Z " fill="#2D2B6B" transform="translate(138,140)"/>
<path d="M0 0 C2.0244349 3.03665235 2.25201497 3.63459468 2.2784729 7.04325867 C2.29521812 8.27370407 2.29521812 8.27370407 2.31230164 9.52900696 C2.31446182 10.42524277 2.31662201 11.32147858 2.31884766 12.24487305 C2.32889328 13.19140747 2.3389389 14.13794189 2.34928894 15.11315918 C2.38021307 18.24600611 2.39718177 21.37876724 2.4140625 24.51171875 C2.43276672 26.68220259 2.45233956 28.8526791 2.4727478 31.02314758 C2.52415381 36.73922411 2.56373422 42.45532424 2.60089111 48.17150879 C2.64087769 54.00307086 2.69199439 59.83453405 2.7421875 65.66601562 C2.83904706 77.11060771 2.92341973 88.55525552 3 100 C1 99 1 99 0 96 C-0.08777496 94.66718729 -0.12200053 93.33040394 -0.12025452 91.9947052 C-0.12162918 91.18282242 -0.12300385 90.37093964 -0.12442017 89.53445435 C-0.12082489 88.64756927 -0.11722961 87.7606842 -0.11352539 86.84692383 C-0.11367142 85.91014297 -0.11381744 84.97336212 -0.1139679 84.00819397 C-0.1132705 80.90778295 -0.10548617 77.80743179 -0.09765625 74.70703125 C-0.09579146 72.55897555 -0.09436784 70.41091943 -0.09336853 68.26286316 C-0.0895482 62.60591459 -0.07972201 56.94899165 -0.06866455 51.29205322 C-0.05844005 45.52087755 -0.05386868 39.74969774 -0.04882812 33.97851562 C-0.03809934 22.65233248 -0.02102869 11.32616837 0 0 Z " fill="#252362" transform="translate(132,191)"/>
<path d="M0 0 C7.35065985 -0.02531484 14.7013085 -0.04285202 22.05200195 -0.05493164 C24.55363383 -0.05996641 27.05526276 -0.06679461 29.55688477 -0.07543945 C33.14860766 -0.08754238 36.74029172 -0.09323682 40.33203125 -0.09765625 C41.45398392 -0.10281754 42.57593658 -0.10797882 43.73188782 -0.11329651 C45.29316658 -0.11340981 45.29316658 -0.11340981 46.88598633 -0.11352539 C48.2616552 -0.11685631 48.2616552 -0.11685631 49.66511536 -0.12025452 C52 0 52 0 55 1 C55 1.99 55 2.98 55 4 C55.99 4.495 55.99 4.495 57 5 C53 5 53 5 51 4 C48.16219263 3.90668986 45.34910226 3.87424639 42.51123047 3.88647461 C41.63311707 3.88632858 40.75500366 3.88618256 39.85028076 3.8860321 C36.9392248 3.88673042 34.02823232 3.89451905 31.1171875 3.90234375 C29.10222407 3.90420822 27.08726019 3.90563198 25.07229614 3.90663147 C19.7622147 3.91045438 14.4521605 3.92028276 9.14208984 3.93133545 C3.72624073 3.94155441 -1.68961278 3.94613013 -7.10546875 3.95117188 C-17.73699115 3.96190521 -28.36849331 3.97897894 -39 4 C-39 3.67 -39 3.34 -39 3 C-37.49433472 2.96241577 -37.49433472 2.96241577 -35.95825195 2.92407227 C-32.2214764 2.82964704 -28.48487157 2.72951314 -24.74829102 2.62768555 C-23.13342289 2.58446917 -21.51851298 2.54278511 -19.90356445 2.50268555 C-17.57750883 2.44465952 -15.25166096 2.38105971 -12.92578125 2.31640625 C-12.20787918 2.29969376 -11.48997711 2.28298126 -10.75032043 2.26576233 C-7.06228324 2.15763988 -3.5914652 1.86035952 0 1 C0 0.67 0 0.34 0 0 Z " fill="#43407B" transform="translate(410,139)"/>
<path d="M0 0 C0.33 0 0.66 0 1 0 C1.11184969 18.50682191 1.04498521 36.99830948 0.5625 55.5 C0.54285187 56.31012543 0.52320374 57.12025085 0.50296021 57.95492554 C0.44610201 60.25138284 0.38255087 62.54754348 0.31640625 64.84375 C0.27974854 66.15537109 0.24309082 67.46699219 0.20532227 68.81835938 C0 72 0 72 -1 75 C-1.10129085 76.66567175 -1.18214198 78.33263156 -1.25 80 C-1.69210523 85.47920576 -3.36261382 89.5846946 -5.7890625 94.47265625 C-7.28904486 97.60326459 -8.17779833 100.63644772 -9 104 C-9.66 104 -10.32 104 -11 104 C-11.33 105.65 -11.66 107.3 -12 109 C-13.77469488 105.45061024 -12.07089627 101.66838935 -11 98 C-8.09868366 90.27954805 -8.09868366 90.27954805 -5.41015625 87.1484375 C-3.49304175 84.22762594 -3.52481768 81.90301941 -3.375 78.4375 C-3.0794702 72.2384106 -3.0794702 72.2384106 -2 69 C-1.89132843 67.56742453 -1.83416651 66.13058896 -1.81054688 64.6940918 C-1.79382935 63.82435226 -1.77711182 62.95461273 -1.7598877 62.05851746 C-1.74631226 61.11494888 -1.73273682 60.17138031 -1.71875 59.19921875 C-1.70034058 58.2124263 -1.68193115 57.22563385 -1.66296387 56.2089386 C-1.60420368 53.03518685 -1.55159206 49.86137577 -1.5 46.6875 C-1.23845724 31.1085957 -0.79363331 15.56156965 0 0 Z " fill="#E2E3F2" transform="translate(462,213)"/>
<path d="M0 0 C0.33 0 0.66 0 1 0 C1.02364897 7.69605212 1.04117256 15.39209503 1.05181217 23.08817482 C1.05693035 26.66556751 1.06381337 30.24293457 1.07543945 33.8203125 C1.12329578 48.97942127 1.05646621 64.12128764 0.55859375 79.2734375 C0.51960464 80.4662735 0.48061554 81.6591095 0.44044495 82.88809204 C0.15813668 90.61070575 -0.35066233 98.29980765 -1 106 C-1.33 106 -1.66 106 -2 106 C-2.02539086 98.84668741 -2.0428841 91.69338648 -2.05493164 84.54003906 C-2.05995504 82.10741746 -2.06677491 79.67479886 -2.07543945 77.2421875 C-2.08759226 73.74217993 -2.09324832 70.24221235 -2.09765625 66.7421875 C-2.10281754 65.65759247 -2.10797882 64.57299744 -2.11329651 63.45553589 C-2.11366448 58.48332943 -1.8473364 53.90359697 -1 49 C-0.79878246 45.23367457 -0.7441413 41.46618974 -0.68359375 37.6953125 C-0.66281265 36.61619598 -0.64203156 35.53707947 -0.62062073 34.42526245 C-0.55544887 30.99190389 -0.4963911 27.55847147 -0.4375 24.125 C-0.39428399 21.79165915 -0.35066873 19.45832566 -0.30664062 17.125 C-0.19980078 11.41674382 -0.09797533 5.70841484 0 0 Z " fill="#141251" transform="translate(244,149)"/>
<path d="M0 0 C33 0 66 0 100 0 C100 0.33 100 0.66 100 1 C99.39835526 1.01030746 98.79671051 1.02061493 98.17683411 1.03123474 C65.11567452 1.59881245 32.05700008 2.22584887 -1 3 C-0.67 2.01 -0.34 1.02 0 0 Z " fill="#2B2766" transform="translate(361,140)"/>
<path d="M0 0 C0.33 0 0.66 0 1 0 C1.02326584 11.3796352 1.04098725 22.75926465 1.05181217 34.13891888 C1.05701002 39.42408278 1.0640508 44.70923029 1.07543945 49.99438477 C1.08637918 55.10372387 1.09230012 60.21304731 1.09487724 65.32239723 C1.09671165 67.2626247 1.10029339 69.20285141 1.10573006 71.14307213 C1.1335261 81.482813 1.04847959 91.70266874 0 102 C-0.66 102 -1.32 102 -2 102 C-2 103.65 -2 105.3 -2 107 C-2.33 107 -2.66 107 -3 107 C-3.125 100.375 -3.125 100.375 -2 97 C-1.85783988 94.91028283 -1.77378515 92.81648014 -1.71875 90.72265625 C-1.70065781 90.06802399 -1.68256561 89.41339172 -1.66392517 88.73892212 C-1.60427539 86.5135475 -1.55194931 84.28806689 -1.5 82.0625 C-1.45980468 80.47696717 -1.41951861 78.89143664 -1.37915039 77.3059082 C-0.74523888 51.5415679 -0.39671838 25.76886484 0 0 Z " fill="#AFADCF" transform="translate(463,188)"/>
<path d="M0 0 C4.06696597 -0.02536731 8.13389925 -0.04316226 12.20092773 -0.05493164 C14.237484 -0.06223113 16.2740186 -0.07495713 18.31054688 -0.08789062 C25.54121105 -0.11500898 32.72663003 0.04795204 39.9453125 0.47265625 C47.46429994 0.91413442 54.97322964 1.14726983 62.50390625 1.28125 C64.10517113 1.30977806 64.10517113 1.30977806 65.73878479 1.33888245 C70.1450472 1.41429596 74.55137798 1.48444092 78.95776367 1.55224609 C82.22322639 1.60372276 85.4885506 1.66093286 88.75390625 1.71875 C90.25673912 1.73911316 90.25673912 1.73911316 91.78993225 1.7598877 C92.70947189 1.77660522 93.62901154 1.79332275 94.57641602 1.81054688 C95.38514664 1.82307495 96.19387726 1.83560303 97.02711487 1.84851074 C99 2 99 2 101 3 C100.67 3.66 100.34 4.32 100 5 C99.01 4.505 99.01 4.505 98 4 C95.59026385 3.87802512 93.20745118 3.81440406 90.79638672 3.79467773 C90.0548233 3.78477814 89.31325989 3.77487854 88.54922485 3.76467896 C86.09274512 3.73303637 83.63624603 3.70829569 81.1796875 3.68359375 C79.478602 3.6630266 77.77752164 3.64203019 76.07644653 3.62062073 C71.59499264 3.56537536 67.11349244 3.51597697 62.63195801 3.46777344 C58.06058623 3.4175764 53.48928187 3.36188096 48.91796875 3.30664062 C39.94537006 3.19902891 30.97271289 3.09759064 22 3 C22 2.34 22 1.68 22 1 C14.74 1 7.48 1 0 1 C0 0.67 0 0.34 0 0 Z " fill="#E1E2F2" transform="translate(140,143)"/>
<path d="M0 0 C0.33 0 0.66 0 1 0 C1.16987828 6.88253511 1.32943639 13.76525681 1.48217773 20.64819336 C1.53519893 22.98451012 1.590491 25.32077659 1.64819336 27.65698242 C2.46962453 61.07851671 2.46962453 61.07851671 -1.95703125 69.66015625 C-3.65680987 73.47351729 -4.3625144 77.51621991 -5.19140625 81.59375 C-5.45824219 82.3878125 -5.72507812 83.181875 -6 84 C-7.485 84.495 -7.485 84.495 -9 85 C-8.17791532 80.28482466 -6.80735764 75.76520355 -5.4375 71.1875 C-5.20353516 70.39923828 -4.96957031 69.61097656 -4.72851562 68.79882812 C-4.15431596 66.86529864 -3.57742667 64.93256823 -3 63 C-2.34 63 -1.68 63 -1 63 C-0.67 42.21 -0.34 21.42 0 0 Z " fill="#D0D0E3" transform="translate(360,221)"/>
<path d="M0 0 C0.66 0 1.32 0 2 0 C1.45892676 5.41073237 -0.49577659 9.29106162 -3 14 C-3.85838997 15.70621515 -4.71244483 17.41461709 -5.5625 19.125 C-11 30 -11 30 -12.03515625 32.03515625 C-12.39480469 32.74542969 -12.75445312 33.45570313 -13.125 34.1875 C-13.45757812 34.84105469 -13.79015625 35.49460937 -14.1328125 36.16796875 C-15.11866293 38.15589153 -15.11866293 38.15589153 -16 41 C-17.859375 40.75390625 -17.859375 40.75390625 -20 40 C-21.265625 38.15234375 -21.265625 38.15234375 -22.25 35.9375 C-22.58515625 35.20402344 -22.9203125 34.47054687 -23.265625 33.71484375 C-23.50796875 33.14894531 -23.7503125 32.58304687 -24 32 C-23.01 31.67 -22.02 31.34 -21 31 C-20.566875 31.9590625 -20.566875 31.9590625 -20.125 32.9375 C-19.17176549 35.15206079 -19.17176549 35.15206079 -17 36 C-15.25150329 31.6960081 -13.6229639 27.35249409 -12 23 C-11.34 23 -10.68 23 -10 23 C-10 22.01 -10 21.02 -10 20 C-9.34 20 -8.68 20 -8 20 C-7.87625 19.0925 -7.7525 18.185 -7.625 17.25 C-7.07890323 14.41029677 -6.42736197 12.47409409 -5 10 C-4.34 10 -3.68 10 -3 10 C-2.87625 9.278125 -2.7525 8.55625 -2.625 7.8125 C-2.0095069 5.04278106 -1.11555626 2.6029646 0 0 Z " fill="#3A366D" transform="translate(317,373)"/>
<path d="M0 0 C0 0.33 0 0.66 0 1 C-0.845625 1.17015625 -1.69125 1.3403125 -2.5625 1.515625 C-8.50613266 2.78540107 -13.88782949 4.07578964 -19.22265625 7.01953125 C-22.96906943 9.08623391 -26.94529513 10.64843171 -31 12 C-31 11.34 -31 10.68 -31 10 C-32.1446875 10.495 -32.1446875 10.495 -33.3125 11 C-36 12 -36 12 -39 12 C-27.5457153 2.16379269 -14.62964909 -0.36523396 0 0 Z " fill="#3E3E76" transform="translate(79,4)"/>
<path d="M0 0 C1.87280273 0.30200195 1.87280273 0.30200195 4 1 C5.53666512 3.39200655 6.81535774 5.65236496 8.0625 8.1875 C8.40087891 8.84814453 8.73925781 9.50878906 9.08789062 10.18945312 C9.75543749 11.4974318 10.41486621 12.8095889 11.06567383 14.12597656 C11.93480754 15.86924031 12.84853923 17.59007241 13.765625 19.30859375 C15.1892373 22.41260918 15.0345234 23.80238221 14 27 C11.23931615 25.61965808 10.45454061 23.46412601 9.01171875 20.8359375 C8.17806266 19.3231253 7.28417506 17.84366741 6.375 16.375 C5 14 5 14 3.9375 11.25 C3.22002336 8.83767007 3.22002336 8.83767007 1 8 C0.40644386 5.35139573 0.25790731 2.70802678 0 0 Z " fill="#484579" transform="translate(277,373)"/>
<path d="M0 0 C1.99954746 -0.04254356 4.00041636 -0.04080783 6 0 C6.33 0.33 6.66 0.66 7 1 C9.58549772 1.12505085 12.14561411 1.186048 14.73266602 1.20532227 C15.5423584 1.21522186 16.35205078 1.22512146 17.1862793 1.23532104 C19.87545805 1.26702987 22.5646545 1.29173035 25.25390625 1.31640625 C27.11336234 1.33696769 28.97281368 1.35796394 30.83226013 1.37937927 C35.73623815 1.43468366 40.64025893 1.4840559 45.54431152 1.53222656 C50.54455388 1.58238066 55.54473382 1.63809845 60.54492188 1.69335938 C70.36322799 1.80104321 80.18158819 1.90246532 90 2 C90 2.33 90 2.66 90 3 C79.003748 3.04634426 68.00751924 3.08187988 57.01118946 3.10362434 C51.90512962 3.11406068 46.79913661 3.12821724 41.69311523 3.15087891 C36.76535574 3.1726125 31.83766052 3.18456976 26.9098568 3.18975449 C25.02999548 3.1934493 23.15013767 3.20066432 21.27030373 3.21146011 C18.6369123 3.22598182 16.00378636 3.22797765 13.37036133 3.22705078 C12.59352493 3.23424133 11.81668854 3.24143188 11.01631165 3.24884033 C6.899646 3.233166 3.70281896 2.84650783 0 1 C0 0.67 0 0.34 0 0 Z " fill="#BBBCD2" transform="translate(252,535)"/>
<path d="M0 0 C0.66 0 1.32 0 2 0 C2.04938628 4.23582327 2.08571263 8.47149465 2.10986328 12.70751953 C2.11992963 14.14895547 2.1335838 15.59037095 2.15087891 17.03173828 C2.17510012 19.10193934 2.18647641 21.17187076 2.1953125 23.2421875 C2.20578613 24.4885498 2.21625977 25.73491211 2.22705078 27.01904297 C2 30 2 30 0 32 C-0.75792479 24.97566135 -1.10689357 17.99825143 -1.125 10.9375 C-1.12951172 10.19959229 -1.13402344 9.46168457 -1.13867188 8.70141602 C-1.12988319 5.53419289 -1.00878777 3.0263633 0 0 Z " fill="#302F6B" transform="translate(356,144)"/>
<path d="M0 0 C1.33332095 2.6666419 0.67102033 4.16680303 0 7 C-0.66 7 -1.32 7 -2 7 C-2.226875 7.78375 -2.45375 8.5675 -2.6875 9.375 C-4.40793081 14.12666605 -6.69065947 18.51203633 -9 23 C-9.60607481 24.20737738 -10.21062727 25.41552242 -10.8125 26.625 C-11.204375 27.40875 -11.59625 28.1925 -12 29 C-12.33 29 -12.66 29 -13 29 C-13.21278058 24.53160785 -12.59138085 21.17737474 -11 17 C-10.34 17 -9.68 17 -9 17 C-8.87625 16.0925 -8.7525 15.185 -8.625 14.25 C-8.07890323 11.41029677 -7.42736197 9.47409409 -6 7 C-5.34 7 -4.68 7 -4 7 C-4 6.34 -4 5.68 -4 5 C-3.01 5 -2.02 5 -1 5 C-0.67 3.35 -0.34 1.7 0 0 Z " fill="#E6E7F6" transform="translate(411,403)"/>
<path d="M0 0 C0.625 1.875 0.625 1.875 1 4 C0.34 4.66 -0.32 5.32 -1 6 C-1.144375 7.134375 -1.28875 8.26875 -1.4375 9.4375 C-2.03188071 13.20191118 -2.32578822 13.64669363 -5 16 C-5.71727778 17.64551962 -6.38325228 19.31422289 -7 21 C-7.65213539 22.34050052 -8.31379969 23.67661368 -9 25 C-9.66 25 -10.32 25 -11 25 C-11.0825 25.928125 -11.165 26.85625 -11.25 27.8125 C-12 31 -12 31 -14.0625 32.875 C-14.701875 33.24625 -15.34125 33.6175 -16 34 C-14.51771536 29.0800765 -13.18277721 25.07395482 -10 21 C-9.00047226 18.91089697 -8.09670691 16.78838498 -7.18359375 14.66015625 C-4.97057682 9.68634592 -2.463607 4.85330578 0 0 Z " fill="#A8A8CA" transform="translate(317,379)"/>
<path d="M0 0 C0.33 0 0.66 0 1 0 C1.02505615 0.99443115 1.0501123 1.9888623 1.07592773 3.01342773 C1.16984882 6.69048747 1.27010619 10.3673515 1.37231445 14.04418945 C1.41572146 15.637893 1.45739219 17.2316448 1.49731445 18.82543945 C1.55487807 21.11163908 1.61861149 23.39759449 1.68359375 25.68359375 C1.70030624 26.40026718 1.71701874 27.11694061 1.73423767 27.85533142 C1.55018654 31.21527382 1.55018654 31.21527382 3 34 C3.08713831 35.70772358 3.10700007 37.41898649 3.09765625 39.12890625 C3.09443359 40.16337891 3.09121094 41.19785156 3.08789062 42.26367188 C3.07951172 43.35228516 3.07113281 44.44089844 3.0625 45.5625 C3.05798828 46.65498047 3.05347656 47.74746094 3.04882812 48.87304688 C3.03699826 51.58208495 3.02051543 54.29101599 3 57 C2.67 57 2.34 57 2 57 C1.93941406 55.95199219 1.87882813 54.90398437 1.81640625 53.82421875 C1.73198262 52.44529952 1.64733553 51.06639395 1.5625 49.6875 C1.52318359 48.99720703 1.48386719 48.30691406 1.44335938 47.59570312 C1.25072585 44.52838465 0.97677283 41.93031848 0 39 C-0.085409 36.05035887 -0.11582927 33.12496981 -0.09765625 30.17578125 C-0.09553383 28.88367989 -0.09553383 28.88367989 -0.09336853 27.56547546 C-0.0877714 24.81444831 -0.07521946 22.06350256 -0.0625 19.3125 C-0.05748463 17.4472668 -0.05292179 15.58203233 -0.04882812 13.71679688 C-0.03780292 9.14449989 -0.02054027 4.57226375 0 0 Z " fill="#312E6D" transform="translate(132,152)"/>
<path d="M0 0 C4.14020334 -0.05039102 8.28023234 -0.08617395 12.4206543 -0.10986328 C13.82172768 -0.11976486 15.22278133 -0.13328969 16.6237793 -0.15087891 C26.60809983 -0.27285767 36.1310172 0.41889502 46 2 C46 2.33 46 2.66 46 3 C38.08 3 30.16 3 22 3 C22 2.34 22 1.68 22 1 C14.74 1 7.48 1 0 1 C0 0.67 0 0.34 0 0 Z " fill="#D9DAEF" transform="translate(140,143)"/>
<path d="M0 0 C8 9.71428571 8 9.71428571 8 15 C8.66 15 9.32 15 10 15 C10.33 17.97 10.66 20.94 11 24 C11.66 24 12.32 24 13 24 C13 24.99 13 25.98 13 27 C12.34 27 11.68 27 11 27 C8 20.375 8 20.375 8 17 C7.34 17 6.68 17 6 17 C5.28764791 15.33784512 4.57587225 13.67544056 3.8671875 12.01171875 C3.30040131 10.69687692 2.72269249 9.38667573 2.1328125 8.08203125 C0.84352435 5.20262105 0 3.19320442 0 0 Z " fill="#2B2A5E" transform="translate(183,402)"/>
<path d="M0 0 C0.33 0.66 0.66 1.32 1 2 C0.67 2.99 0.34 3.98 0 5 C-0.66 5 -1.32 5 -2 5 C-2.20496094 5.61488281 -2.40992188 6.22976563 -2.62109375 6.86328125 C-3.74739583 10.2421875 -4.87369792 13.62109375 -6 17 C-6.66 17 -7.32 17 -8 17 C-8.103125 17.721875 -8.20625 18.44375 -8.3125 19.1875 C-9.06718283 22.27483884 -10.3227585 24.31641361 -12 27 C-12.69822617 28.65369357 -13.37498605 30.31727014 -14 32 C-15.33332095 29.3333581 -14.67102033 27.83319697 -14 25 C-13.34 25 -12.68 25 -12 25 C-12 23.35 -12 21.7 -12 20 C-11.01 20 -10.02 20 -9 20 C-8.7834375 18.1128125 -8.7834375 18.1128125 -8.5625 16.1875 C-8.26251314 13.57332877 -7.84186703 11.52560108 -7 9 C-6.34 9 -5.68 9 -5 9 C-4.67 7.02 -4.34 5.04 -4 3 C-3.01 3 -2.02 3 -1 3 C-0.67 2.01 -0.34 1.02 0 0 Z " fill="#C1C1DB" transform="translate(437,349)"/>
<path d="M0 0 C2.475 0.495 2.475 0.495 5 1 C-0.08246731 6.6435189 -7.54601536 9.51387057 -15 10 C-14.875 8.1875 -14.875 8.1875 -14 6 C-9.75384075 3.27032619 -5.93013503 2.6766852 -1 2 C-0.67 1.34 -0.34 0.68 0 0 Z " fill="#4D4A81" transform="translate(552,670)"/>
<path d="M0 0 C5 6.36363636 5 6.36363636 5 11 C5.66 11 6.32 11 7 11 C9.13097096 17.29981221 11.24980222 23.58260813 13 30 C12.34 30 11.68 30 11 30 C11 29.01 11 28.02 11 27 C10.34 27 9.68 27 9 27 C8.81824219 26.40832031 8.63648438 25.81664062 8.44921875 25.20703125 C6.85886284 20.18662777 6.85886284 20.18662777 4.5 15.5 C1.59185833 10.65309721 0 5.64172584 0 0 Z " fill="#ABAAC9" transform="translate(252,320)"/>
<path d="M0 0 C1.03753243 2.68500818 1.07311138 3.79855811 0.07421875 6.55078125 C-0.61220703 7.91783203 -0.61220703 7.91783203 -1.3125 9.3125 C-3.34582431 13.52599983 -4.89098021 17.46310087 -6 22 C-6.66 22 -7.32 22 -8 22 C-8.33 23.65 -8.66 25.3 -9 27 C-10.77494111 23.45011778 -9.07040357 19.66913738 -8 16 C-5.87179271 10.36540714 -3.07738271 5.16560669 0 0 Z " fill="#C3C2DC" transform="translate(459,295)"/>
<path d="M0 0 C0.66 0 1.32 0 2 0 C1.46066487 5.39335125 -0.44175739 9.32952419 -3 14 C-3.45375 14.82886719 -3.9075 15.65773438 -4.375 16.51171875 C-5.57333329 18.68029348 -6.78152261 20.84269576 -8 23 C-8.66 23 -9.32 23 -10 23 C-10 22.01 -10 21.02 -10 20 C-9.34 20 -8.68 20 -8 20 C-7.87625 19.0925 -7.7525 18.185 -7.625 17.25 C-7.07890323 14.41029677 -6.42736197 12.47409409 -5 10 C-4.34 10 -3.68 10 -3 10 C-2.814375 8.9171875 -2.814375 8.9171875 -2.625 7.8125 C-2.0095069 5.04278106 -1.11555626 2.6029646 0 0 Z " fill="#252363" transform="translate(317,373)"/>
<path d="M0 0 C0.33 0.66 0.66 1.32 1 2 C0.33333333 3.33333333 -0.33333333 4.66666667 -1 6 C-1.28394685 7.3514778 -1.55364361 8.70599293 -1.8125 10.0625 C-2.53573025 13.05556056 -2.79724986 13.8204213 -5.1875 15.9375 C-8.45772873 17.17291974 -11.52819552 17.65962701 -15 18 C-15 17.34 -15 16.68 -15 16 C-13.02 16 -11.04 16 -9 16 C-8.9175 15.38125 -8.835 14.7625 -8.75 14.125 C-8.5025 13.42375 -8.255 12.7225 -8 12 C-7.35933594 11.72027344 -6.71867187 11.44054687 -6.05859375 11.15234375 C-3.82597571 10.16324669 -3.82597571 10.16324669 -2.98828125 7.87109375 C-2.76527344 7.06800781 -2.54226563 6.26492188 -2.3125 5.4375 C-1.05829596 1.05829596 -1.05829596 1.05829596 0 0 Z " fill="#4B487E" transform="translate(352,523)"/>
<path d="M0 0 C0.66 0 1.32 0 2 0 C1.17812739 4.38332057 0.09845718 8.67940177 -1 13 C-1.66 13 -2.32 13 -3 13 C-3.12375 13.598125 -3.2475 14.19625 -3.375 14.8125 C-4 17 -4 17 -6 20 C-5.67 15.71 -5.34 11.42 -5 7 C-4.01 6.67 -3.02 6.34 -2 6 C-0.77479736 2.99152582 -0.77479736 2.99152582 0 0 Z " fill="#2C2B67" transform="translate(346,309)"/>
<path d="M0 0 C0.66 0 1.32 0 2 0 C2 0.99 2 1.98 2 3 C2.66 3 3.32 3 4 3 C4.48066535 4.89545392 4.95946743 6.79138039 5.4375 8.6875 C5.83775391 10.27111328 5.83775391 10.27111328 6.24609375 11.88671875 C6.89897932 14.5828317 7.47941193 17.2757576 8 20 C8.66 20 9.32 20 10 20 C10.66 22.31 11.32 24.62 12 27 C11.34 26.67 10.68 26.34 10 26 C10 25.34 10 24.68 10 24 C9.34 24 8.68 24 8 24 C8 23.01 8 22.02 8 21 C7.34 21 6.68 21 6 21 C3.33439692 14.09366475 1.07673991 7.35772275 0 0 Z " fill="#6F6F95" transform="translate(144,314)"/>
<path d="M0 0 C0.6875 1.6875 0.6875 1.6875 1 4 C-0.25 6.3125 -0.25 6.3125 -2 9 C-3.01529541 11.32671865 -4.01488198 13.6603447 -5 16 C-5.53625 17.051875 -6.0725 18.10375 -6.625 19.1875 C-7.76364597 21.51654857 -8.5140775 23.47320299 -9 26 C-9.66 26 -10.32 26 -11 26 C-9.04443633 16.57773868 -4.92984691 8.21641151 0 0 Z " fill="#A6A7C3" transform="translate(336,339)"/>
<path d="M0 0 C1 3 1 3 -0.4375 6.1875 C-1.2109375 7.5796875 -1.2109375 7.5796875 -2 9 C-2.66 9 -3.32 9 -4 9 C-4.566616 11.25042768 -5.11796069 13.50239886 -5.6484375 15.76171875 C-6.00808594 17.20998047 -6.00808594 17.20998047 -6.375 18.6875 C-6.72691406 20.14736328 -6.72691406 20.14736328 -7.0859375 21.63671875 C-7.38757813 22.41660156 -7.68921875 23.19648438 -8 24 C-8.99 24.33 -9.98 24.66 -11 25 C-11 24.01 -11 23.02 -11 22 C-10.34 22 -9.68 22 -9 22 C-9.04125 21.113125 -9.0825 20.22625 -9.125 19.3125 C-9.00102754 16.02722987 -8.38612096 13.94550705 -7 11 C-6.34 11 -5.68 11 -5 11 C-4.9175 10.113125 -4.835 9.22625 -4.75 8.3125 C-3.9065914 4.58744536 -2.54447236 2.79071162 0 0 Z " fill="#C1C0D9" transform="translate(382,461)"/>
<path d="M0 0 C0.33 0.66 0.66 1.32 1 2 C-0.0390625 4.3203125 -0.0390625 4.3203125 -1.625 7.125 C-2.17671875 8.10339844 -2.7284375 9.08179688 -3.296875 10.08984375 C-5.45607238 13.77929799 -7.69180488 17.40193114 -10 21 C-10.68359375 19.359375 -10.68359375 19.359375 -11 17 C-9.78515625 14.203125 -9.78515625 14.203125 -8.0625 11.25 C-7.49660156 10.26515625 -6.93070312 9.2803125 -6.34765625 8.265625 C-5.90292969 7.51796875 -5.45820313 6.7703125 -5 6 C-4.34 6 -3.68 6 -3 6 C-3 5.34 -3 4.68 -3 4 C-2.34 4 -1.68 4 -1 4 C-0.67 2.68 -0.34 1.36 0 0 Z " fill="#BDBDD7" transform="translate(360,507)"/>
<path d="M0 0 C9.24 0 18.48 0 28 0 C28.33 0.99 28.66 1.98 29 3 C22 3 22 3 19.92578125 2.53515625 C16.02282526 1.82126443 12.14548097 1.6398779 8.1875 1.4375 C7.39923828 1.39431641 6.61097656 1.35113281 5.79882812 1.30664062 C3.86605785 1.20121679 1.93304974 1.10016906 0 1 C0 0.67 0 0.34 0 0 Z " fill="#35326F" transform="translate(309,539)"/>
<path d="M0 0 C0.66 0 1.32 0 2 0 C2 0.99 2 1.98 2 3 C2.66 3 3.32 3 4 3 C6.15305957 6.85756507 7.39253254 9.55129785 7 14 C7.66 14 8.32 14 9 14 C9.33 15.98 9.66 17.96 10 20 C7.06565867 17.45221861 5.59146321 14.58380275 3.875 11.125 C3.35679687 10.09632813 2.83859375 9.06765625 2.3046875 8.0078125 C1.12532268 5.28891755 0.44136934 2.91734365 0 0 Z " fill="#B7B7D3" transform="translate(168,366)"/>
<path d="M0 0 C0.66 0 1.32 0 2 0 C2 0.99 2 1.98 2 3 C2.66 3 3.32 3 4 3 C4.8466034 4.38782485 5.67675339 5.78569397 6.5 7.1875 C6.9640625 7.96480469 7.428125 8.74210937 7.90625 9.54296875 C9.10729647 12.24103386 9.20741043 14.0806982 9 17 C9.99 17.33 10.98 17.66 12 18 C12 19.65 12 21.3 12 23 C11.34 22.67 10.68 22.34 10 22 C10 21.01 10 20.02 10 19 C9.34 19 8.68 19 8 19 C7.01 15.37 6.02 11.74 5 8 C4.34 8 3.68 8 3 8 C0 2.25 0 2.25 0 0 Z " fill="#C0C0DA" transform="translate(156,342)"/>
<path d="M0 0 C0.66 0.33 1.32 0.66 2 1 C1.3125 3.375 1.3125 3.375 0 6 C-2.625 7.3125 -2.625 7.3125 -5 8 C-5 7.34 -5 6.68 -5 6 C-6.1446875 6.495 -6.1446875 6.495 -7.3125 7 C-10 8 -10 8 -13 8 C-9.10904843 4.59541738 -4.88634235 1.75822032 0 0 Z " fill="#7A78A3" transform="translate(53,8)"/>
<path d="M0 0 C0.66 0 1.32 0 2 0 C1.40165275 4.14298667 -0.00664285 7.18194377 -2.0625 10.8125 C-2.61035156 11.78832031 -3.15820312 12.76414062 -3.72265625 13.76953125 C-4.14417969 14.50558594 -4.56570313 15.24164062 -5 16 C-5.66 16 -6.32 16 -7 16 C-6.28552219 12.83272725 -5.25622485 9.8930968 -4.0625 6.875 C-3.72347656 6.00617187 -3.38445312 5.13734375 -3.03515625 4.2421875 C-2 2 -2 2 0 0 Z " fill="#282660" transform="translate(357,516)"/>
<path d="M0 0 C0.66 0 1.32 0 2 0 C1.62964591 6.78982507 -0.40476401 11.26884891 -4 17 C-4.66 17 -5.32 17 -6 17 C-4.46745644 11.12524968 -2.32330984 5.60526694 0 0 Z " fill="#B7B6D4" transform="translate(343,322)"/>
<path d="M0 0 C-3.88026891 4.24404412 -8.04254346 7.10917547 -13 10 C-13.33 9.01 -13.66 8.02 -14 7 C-12.68 7 -11.36 7 -10 7 C-10.33 6.01 -10.66 5.02 -11 4 C-7.20307814 1.17438373 -4.81430721 -0.56638908 0 0 Z " fill="#444184" transform="translate(575,658)"/>
<path d="M0 0 C0.556875 0.309375 1.11375 0.61875 1.6875 0.9375 C3.97559465 2.10950427 3.97559465 2.10950427 6.5625 2.4375 C9.3357713 3.07748568 10.42265111 3.63397667 12 6 C11.6875 8.1875 11.6875 8.1875 11 10 C7.81326038 8.59698853 5.67778594 6.92234929 3.25 4.4375 C2.63640625 3.81746094 2.0228125 3.19742188 1.390625 2.55859375 C0 1 0 1 0 0 Z " fill="#716F9D" transform="translate(22,654)"/>
<path d="M0 0 C4.875 0.875 4.875 0.875 6 2 C8.52596259 2.23653523 11.03107207 2.42173692 13.5625 2.5625 C14.27341797 2.60568359 14.98433594 2.64886719 15.71679688 2.69335938 C17.47761912 2.79971777 19.2387832 2.90038846 21 3 C20.67 3.66 20.34 4.32 20 5 C17.75026553 5.054138 15.50015617 5.09285491 13.25 5.125 C11.99703125 5.14820313 10.7440625 5.17140625 9.453125 5.1953125 C6.27179508 5.01537302 4.63478104 4.68998582 2 3 C2 2.34 2 1.68 2 1 C1.34 0.67 0.68 0.34 0 0 Z " fill="#32316B" transform="translate(250,536)"/>
<path d="M0 0 C0.66 0 1.32 0 2 0 C2.1875 2.3125 2.1875 2.3125 2 5 C0.6875 6.4375 0.6875 6.4375 -1 8 C-2.04622875 9.97620986 -3.05439935 11.9737129 -4 14 C-4.33 14 -4.66 14 -5 14 C-4.25 6.375 -4.25 6.375 -2 3 C-1.34 3 -0.68 3 0 3 C0 2.01 0 1.02 0 0 Z " fill="#2A2963" transform="translate(411,407)"/>
<path d="M0 0 C0.33 0 0.66 0 1 0 C1.05416188 1.60379341 1.09286638 3.20811406 1.125 4.8125 C1.14820313 5.70582031 1.17140625 6.59914063 1.1953125 7.51953125 C1 10 1 10 -1 13 C-1.99 13 -2.98 13 -4 13 C-3.67 10.36 -3.34 7.72 -3 5 C-2.34 5 -1.68 5 -1 5 C-0.67 3.35 -0.34 1.7 0 0 Z " fill="#515080" transform="translate(447,327)"/>
<path d="M0 0 C2.23723768 3.35585653 2.79601813 5.88111626 3.625 9.8125 C3.88539063 11.01519531 4.14578125 12.21789062 4.4140625 13.45703125 C4.95396255 16.72162686 5.11116414 19.7004463 5 23 C2.47903923 20.47903923 2.47795226 18.92091918 1.9375 15.4375 C1.64031837 11.90904834 1.64031837 11.90904834 0 9 C-0.07179964 7.48071962 -0.08392007 5.95832518 -0.0625 4.4375 C-0.05347656 3.61121094 -0.04445312 2.78492188 -0.03515625 1.93359375 C-0.02355469 1.29550781 -0.01195312 0.65742188 0 0 Z " fill="#DBD9EC" transform="translate(136,281)"/>
<path d="M0 0 C0.99 0 1.98 0 3 0 C3.35281338 4.1970092 2.64185432 6.06522073 0 9.3125 C-0.556875 10.00988281 -1.11375 10.70726562 -1.6875 11.42578125 C-2.120625 11.94527344 -2.55375 12.46476562 -3 13 C-4.125 9.25 -4.125 9.25 -3 7 C-2.34 7 -1.68 7 -1 7 C-0.67 4.69 -0.34 2.38 0 0 Z " fill="#2B2965" transform="translate(437,351)"/>
<path d="M0 0 C-0.99 0.33 -1.98 0.66 -3 1 C-3 1.66 -3 2.32 -3 3 C-2.34 3.33 -1.68 3.66 -1 4 C-4.13498292 5.85776765 -6.37471432 6.20140476 -10 6 C-9.375 3.625 -9.375 3.625 -8 1 C-2.7826087 -1.39130435 -2.7826087 -1.39130435 0 0 Z " fill="#5B5B87" transform="translate(63,6)"/>
<path d="M0 0 C0.33 0 0.66 0 1 0 C1.20496094 0.89203125 1.40992188 1.7840625 1.62109375 2.703125 C1.89050781 3.87359375 2.15992188 5.0440625 2.4375 6.25 C2.83775391 7.99023438 2.83775391 7.99023438 3.24609375 9.765625 C3.67929348 11.62411917 4.14992946 13.47653255 4.72265625 15.296875 C4.81417969 15.85890625 4.90570312 16.4209375 5 17 C4.34 17.66 3.68 18.32 3 19 C0.36903961 12.51656189 -0.39325819 6.97669157 0 0 Z " fill="#434177" transform="translate(5,612)"/>
<path d="M0 0 C0.66 0 1.32 0 2 0 C1.50269348 4.97306516 0.44697666 8.63799813 -2 13 C-2.33 13 -2.66 13 -3 13 C-3.31563182 7.73946963 -2.66590937 4.55426184 0 0 Z " fill="#2A285F" transform="translate(451,319)"/>
<path d="M0 0 C0.66 0 1.32 0 2 0 C2 5.61 2 11.22 2 17 C1.67 17 1.34 17 1 17 C-0.88341198 10.90660831 -1.0748291 6.27467799 0 0 Z " fill="#383770" transform="translate(356,144)"/>
<path d="M0 0 C2.21227968 2.21227968 2.95767096 3.92876494 4.125 6.8125 C4.47820312 7.66457031 4.83140625 8.51664062 5.1953125 9.39453125 C6.02476723 12.08019292 6.15038245 14.20789919 6 17 C3.221279 14.62602268 2.30448041 12.55280146 1.3125 9.0625 C1.06113281 8.20785156 0.80976563 7.35320312 0.55078125 6.47265625 C0 4 0 4 0 0 Z " fill="#B0AFD0" transform="translate(243,297)"/>
<path d="M0 0 C1 3 1 3 0.109375 5.26953125 C-0.33921875 6.10871094 -0.7878125 6.94789063 -1.25 7.8125 C-1.94416016 9.13314453 -1.94416016 9.13314453 -2.65234375 10.48046875 C-3.09707031 11.31191406 -3.54179687 12.14335937 -4 13 C-4.60890055 14.20595478 -5.21412168 15.41378978 -5.8125 16.625 C-6.204375 17.40875 -6.59625 18.1925 -7 19 C-7.33 19 -7.66 19 -8 19 C-8 17.02 -8 15.04 -8 13 C-7.01 12.67 -6.02 12.34 -5 12 C-4.04764395 10.00207384 -4.04764395 10.00207384 -3.4375 7.625 C-2.54987314 4.54588761 -1.81775218 2.72662828 0 0 Z " fill="#AAAAC8" transform="translate(406,413)"/>
<path d="M0 0 C1.5 1.375 1.5 1.375 3 3 C3 3.66 3 4.32 3 5 C3.66 5 4.32 5 5 5 C5 6.65 5 8.3 5 10 C5.66 10 6.32 10 7 10 C7 10.66 7 11.32 7 12 C6.01 12 5.02 12 4 12 C3.32332002 10.75539217 2.65905281 9.50403104 2 8.25 C1.62875 7.55390625 1.2575 6.8578125 0.875 6.140625 C0 4 0 4 0 0 Z " fill="#2A2663" transform="translate(273,361)"/>
<path d="M0 0 C0.33 0.66 0.66 1.32 1 2 C0.67 2.99 0.34 3.98 0 5 C-0.66 5 -1.32 5 -2 5 C-2.2475 5.721875 -2.495 6.44375 -2.75 7.1875 C-4.10983674 10.24713266 -5.82917754 12.4673738 -8 15 C-7.67 13.02 -7.34 11.04 -7 9 C-6.34 9 -5.68 9 -5 9 C-4.67 7.02 -4.34 5.04 -4 3 C-3.01 3 -2.02 3 -1 3 C-0.67 2.01 -0.34 1.02 0 0 Z " fill="#D1D1E4" transform="translate(437,349)"/>
<path d="M0 0 C1.3297259 3.71065403 0.68694674 6.41674866 -0.25 10.1875 C-0.50265625 11.25355469 -0.7553125 12.31960938 -1.015625 13.41796875 C-1.34046875 14.27003906 -1.6653125 15.12210937 -2 16 C-2.99 16.33 -3.98 16.66 -5 17 C-4.31063929 13.08878502 -3.21749819 9.44491404 -1.9375 5.6875 C-1.57527344 4.61886719 -1.21304687 3.55023438 -0.83984375 2.44921875 C-0.56269531 1.64097656 -0.28554688 0.83273437 0 0 Z " fill="#A8A9C1" transform="translate(356,289)"/>
<path d="M0 0 C1.32 0 2.64 0 4 0 C4.33 2.97 4.66 5.94 5 9 C5.66 9 6.32 9 7 9 C7 9.99 7 10.98 7 12 C6.34 12 5.68 12 5 12 C2 5.375 2 5.375 2 2 C1.34 2 0.68 2 0 2 C0 1.34 0 0.68 0 0 Z " fill="#312F66" transform="translate(189,417)"/>
<path d="M0 0 C0.66 0 1.32 0 2 0 C0.58192622 4.47238653 -1.11304374 8.71146306 -3 13 C-3.33 13 -3.66 13 -4 13 C-4 10.36 -4 7.72 -4 5 C-3.34 5 -2.68 5 -2 5 C-2 4.34 -2 3.68 -2 3 C-1.34 3 -0.68 3 0 3 C0 2.01 0 1.02 0 0 Z " fill="#C0C1D6" transform="translate(442,336)"/>
<path d="M0 0 C0.66 0 1.32 0 2 0 C2.5345256 1.24420647 3.05208611 2.49570936 3.5625 3.75 C3.85253906 4.44609375 4.14257812 5.1421875 4.44140625 5.859375 C5.07831803 8.30012784 4.80248831 9.6403655 4 12 C1.95780294 10.30820672 1.08206694 9.36272334 0.48828125 6.73828125 C0.43027344 5.93777344 0.37226563 5.13726562 0.3125 4.3125 C0.24675781 3.50425781 0.18101562 2.69601562 0.11328125 1.86328125 C0.07589844 1.24839844 0.03851563 0.63351562 0 0 Z " fill="#44426F" transform="translate(139,304)"/>
<path d="M0 0 C1.5 1.375 1.5 1.375 3 3 C3 3.66 3 4.32 3 5 C2.01 5 1.02 5 0 5 C0.99 7.97 1.98 10.94 3 14 C0.13888288 11.13888288 -0.7915004 9.7184603 -2 6 C-2 5.01 -2 4.02 -2 3 C-1.34 3 -0.68 3 0 3 C0 2.01 0 1.02 0 0 Z " fill="#606096" transform="translate(11,628)"/>
<path d="M0 0 C1 3 1 3 -0.25 6.5 C-1.67322614 9.34645229 -2.58327112 11.04360043 -5 13 C-4.67 10.69 -4.34 8.38 -4 6 C-3.34 6 -2.68 6 -2 6 C-1.7834375 5.071875 -1.7834375 5.071875 -1.5625 4.125 C-1 2 -1 2 0 0 Z " fill="#1E1C57" transform="translate(379,472)"/>
<path d="M0 0 C0.66 0 1.32 0 2 0 C1.48474397 5.28137429 -0.25477117 8.57221156 -3 13 C-4.23593891 9.29218328 -3.5678132 8.32489747 -2.0625 4.8125 C-1.68222656 3.91144531 -1.30195313 3.01039063 -0.91015625 2.08203125 C-0.60980469 1.39496094 -0.30945313 0.70789063 0 0 Z " fill="#1D1C58" transform="translate(317,373)"/>
<path d="M0 0 C0.33 0 0.66 0 1 0 C1.53341184 1.57914015 2.05125763 3.16354387 2.5625 4.75 C2.85253906 5.63171875 3.14257812 6.5134375 3.44140625 7.421875 C4.01697435 10.07834316 3.89248371 11.47031106 3 14 C2.67 12.02 2.34 10.04 2 8 C1.01 8.33 0.02 8.66 -1 9 C-1.33 7.68 -1.66 6.36 -2 5 C-1.67 5 -1.34 5 -1 5 C-0.67 3.35 -0.34 1.7 0 0 Z " fill="#5D5C8B" transform="translate(135,285)"/>
<path d="M0 0 C0.66 0 1.32 0 2 0 C2.66 3.3 3.32 6.6 4 10 C3.01 9.34 2.02 8.68 1 8 C1 7.01 1 6.02 1 5 C0.34 5 -0.32 5 -1 5 C-0.67 3.35 -0.34 1.7 0 0 Z " fill="#2C2A67" transform="translate(232,500)"/>
<path d="M0 0 C1.5 1.3125 1.5 1.3125 3 3 C3 3.99 3 4.98 3 6 C3.639375 6.103125 4.27875 6.20625 4.9375 6.3125 C5.618125 6.539375 6.29875 6.76625 7 7 C8 10 8 10 7.0625 12.1875 C6.5365625 13.0846875 6.5365625 13.0846875 6 14 C4.5393715 11.35261084 4 10.10551666 4 7 C3.34 7 2.68 7 2 7 C2 6.01 2 5.02 2 4 C1.34 4 0.68 4 0 4 C0 2.68 0 1.36 0 0 Z " fill="#716E95" transform="translate(266,351)"/>
<path d="M0 0 C1.31625194 2.63250388 0.74813658 3.80179056 0.0625 6.625 C-0.13214844 7.44226563 -0.32679688 8.25953125 -0.52734375 9.1015625 C-0.76130859 10.04128906 -0.76130859 10.04128906 -1 11 C-1.66 11 -2.32 11 -3 11 C-3 11.99 -3 12.98 -3 14 C-3.66 14 -4.32 14 -5 14 C-3.70022952 9.1008651 -2.07626313 4.62440425 0 0 Z " fill="#A1A1BF" transform="translate(350,306)"/>
<path d="M0 0 C2 2 2 2 2.1953125 4.3828125 C2.17210937 5.28773438 2.14890625 6.19265625 2.125 7.125 C2.10695312 8.03507812 2.08890625 8.94515625 2.0703125 9.8828125 C2.03550781 10.93082031 2.03550781 10.93082031 2 12 C1.34 11.67 0.68 11.34 0 11 C-1.27368421 3.82105263 -1.27368421 3.82105263 0 0 Z " fill="#262360" transform="translate(133,279)"/>
<path d="M0 0 C-0.50603992 2.16874252 -0.99983813 3.99967627 -2 6 C-3.65 6 -5.3 6 -7 6 C-6.67 5.01 -6.34 4.02 -6 3 C-5.34 3 -4.68 3 -4 3 C-4 2.34 -4 1.68 -4 1 C-2 0 -2 0 0 0 Z " fill="#413E7E" transform="translate(578,652)"/>
<path d="M0 0 C0.66 0.99 1.32 1.98 2 3 C1.5390625 5.26171875 1.5390625 5.26171875 0.625 7.6875 C0.18027344 8.89986328 0.18027344 8.89986328 -0.2734375 10.13671875 C-0.51320313 10.75160156 -0.75296875 11.36648438 -1 12 C-2.44810616 9.68719735 -3.12565635 8.58355661 -2.5390625 5.859375 C-2.23742187 5.16328125 -1.93578125 4.4671875 -1.625 3.75 C-1.32851563 3.04359375 -1.03203125 2.3371875 -0.7265625 1.609375 C-0.48679687 1.07828125 -0.24703125 0.5471875 0 0 Z " fill="#44417C" transform="translate(591,624)"/>
<path d="M0 0 C0.66 0 1.32 0 2 0 C2 0.66 2 1.32 2 2 C2.99 2.33 3.98 2.66 5 3 C6.45007937 5.68264684 7.11784055 7.27331661 6.625 10.3125 C6.41875 10.869375 6.2125 11.42625 6 12 C5.67 10.35 5.34 8.7 5 7 C4.34 7 3.68 7 3 7 C2.01 4.69 1.02 2.38 0 0 Z " fill="#BABAD8" transform="translate(237,508)"/>
<path d="M0 0 C0.33 0.66 0.66 1.32 1 2 C1.99 2 2.98 2 4 2 C4.66 4.97 5.32 7.94 6 11 C5.01 10.01 4.02 9.02 3 8 C3 7.34 3 6.68 3 6 C2.34 6 1.68 6 1 6 C0.67 4.02 0.34 2.04 0 0 Z " fill="#28275E" transform="translate(208,454)"/>
<path d="M0 0 C0.99 0 1.98 0 3 0 C3.66 1.98 4.32 3.96 5 6 C5.66 6 6.32 6 7 6 C7 6.99 7 7.98 7 9 C6.01 9 5.02 9 4 9 C3.3309224 7.68872739 2.66480194 6.3759455 2 5.0625 C1.62875 4.33160156 1.2575 3.60070312 0.875 2.84765625 C0 1 0 1 0 0 Z " fill="#302F55" transform="translate(293,404)"/>
<path d="M0 0 C0.66 0 1.32 0 2 0 C4.03435531 3.72965139 5 5.66905042 5 10 C4.34 10 3.68 10 3 10 C0 3.375 0 3.375 0 0 Z " fill="#2A2861" transform="translate(152,338)"/>
<path d="M0 0 C0.33 0 0.66 0 1 0 C1 4.29 1 8.58 1 13 C0.34 13 -0.32 13 -1 13 C-1 14.65 -1 16.3 -1 18 C-1.33 18 -1.66 18 -2 18 C-2.27560214 11.79895188 -1.22899346 6.06815522 0 0 Z " fill="#8F90B2" transform="translate(462,277)"/>
<path d="M0 0 C2.475 0.99 2.475 0.99 5 2 C5 2.66 5 3.32 5 4 C5.66 4.33 6.32 4.66 7 5 C7 6.65 7 8.3 7 10 C3.60582235 6.87378374 1.3937282 4.43458973 0 0 Z " fill="#6E6F9A" transform="translate(14,642)"/>
<path d="M0 0 C0.66 0 1.32 0 2 0 C2 1.32 2 2.64 2 4 C1.34 4 0.68 4 0 4 C-0.12375 4.804375 -0.2475 5.60875 -0.375 6.4375 C-0.58125 7.283125 -0.7875 8.12875 -1 9 C-1.99 9.495 -1.99 9.495 -3 10 C-2.25 3.375 -2.25 3.375 0 0 Z " fill="#292760" transform="translate(372,485)"/>
<path d="M0 0 C0.66 0 1.32 0 2 0 C1.5020163 3.73487777 1.12508244 5.81237635 -1 9 C-1.66 9 -2.32 9 -3 9 C-2.5020163 5.26512223 -2.12508244 3.18762365 0 0 Z " fill="#292761" transform="translate(387,456)"/>
<path d="M0 0 C0.33 0.66 0.66 1.32 1 2 C-1.34375 8.5625 -1.34375 8.5625 -5 11 C-5 9.35 -5 7.7 -5 6 C-4.34 6 -3.68 6 -3 6 C-3 5.34 -3 4.68 -3 4 C-2.34 4 -1.68 4 -1 4 C-0.67 2.68 -0.34 1.36 0 0 Z " fill="#B1B1CC" transform="translate(388,450)"/>
<path d="M0 0 C3.94727588 -0.17942163 6.5980513 -0.09350689 10 2 C9.67 2.99 9.34 3.98 9 5 C4.545 3.02 4.545 3.02 0 1 C0 0.67 0 0.34 0 0 Z " fill="#3D3978" transform="translate(50,673)"/>
<path d="M0 0 C0.6875 1.625 0.6875 1.625 1 4 C-0.4375 7.25 -0.4375 7.25 -2 10 C-2.66 10 -3.32 10 -4 10 C-3.67 7.69 -3.34 5.38 -3 3 C-2.01 3 -1.02 3 0 3 C0 2.01 0 1.02 0 0 Z " fill="#292661" transform="translate(430,368)"/>
<path d="M0 0 C0.66 0 1.32 0 2 0 C2.16682272 4.92127034 2.24828052 8.50343896 0 13 C-0.33 13 -0.66 13 -1 13 C-0.67 8.71 -0.34 4.42 0 0 Z " fill="#1F1F59" transform="translate(463,283)"/>
<path d="M0 0 C0.66 0 1.32 0 2 0 C2.25532751 3.06393013 2.21861333 4.63233212 0.625 7.3125 C-0.179375 8.1478125 -0.179375 8.1478125 -1 9 C-1.66 9 -2.32 9 -3 9 C-2.67 7.35 -2.34 5.7 -2 4 C-1.34 4 -0.68 4 0 4 C0 2.68 0 1.36 0 0 Z " fill="#2E2C68" transform="translate(394,442)"/>
<path d="M0 0 C0.66 0 1.32 0 2 0 C1.49701212 4.40114397 -0.08772731 6.71195019 -3 10 C-2.69201674 8.51988629 -2.378482 7.04092675 -2.0625 5.5625 C-1.88847656 4.73878906 -1.71445312 3.91507812 -1.53515625 3.06640625 C-1 1 -1 1 0 0 Z " fill="#232159" transform="translate(399,431)"/>
<path d="M0 0 C0.33 0.66 0.66 1.32 1 2 C-1.34375 8.5625 -1.34375 8.5625 -5 11 C-4.54917531 9.53932801 -4.08906463 8.08151968 -3.625 6.625 C-3.36976563 5.81289063 -3.11453125 5.00078125 -2.8515625 4.1640625 C-2 2 -2 2 0 0 Z " fill="#9694B5" transform="translate(306,402)"/>
<path d="M0 0 C1.5 1.3125 1.5 1.3125 3 3 C3 3.99 3 4.98 3 6 C3.66 6 4.32 6 5 6 C5 6.99 5 7.98 5 9 C3.68 8.67 2.36 8.34 1 8 C0.67 5.36 0.34 2.72 0 0 Z " fill="#322F6A" transform="translate(261,335)"/>
<path d="M0 0 C1.53166168 4.08443115 0.63081652 7.79455657 0 12 C-0.99 11.67 -1.98 11.34 -3 11 C-2.32829194 7.1936543 -1.27253436 3.64793184 0 0 Z " fill="#444178" transform="translate(457,303)"/>
<path d="M0 0 C0.66 0 1.32 0 2 0 C1.49287967 3.71888239 0.88391785 6.73454239 -1 10 C-1.66 10 -2.32 10 -3 10 C-2.21302675 6.58978257 -1.12880057 3.31114834 0 0 Z " fill="#1E1B57" transform="translate(353,522)"/>
<path d="M0 0 C0.66 0 1.32 0 2 0 C2.86646667 1.43011973 3.71781829 2.86940619 4.5625 4.3125 C5.03816406 5.11300781 5.51382813 5.91351562 6.00390625 6.73828125 C7 9 7 9 6 12 C4.02 8.04 2.04 4.08 0 0 Z " fill="#CFCFE8" transform="translate(244,521)"/>
<path d="M0 0 C2 2 2 2 2 5 C2.66 5 3.32 5 4 5 C4.33 6.32 4.66 7.64 5 9 C3.68 9 2.36 9 1 9 C-1.125 2.25 -1.125 2.25 0 0 Z " fill="#3E3D71" transform="translate(206,447)"/>
<path d="M0 0 C1.32 0.33 2.64 0.66 4 1 C4.625 2.875 4.625 2.875 5 5 C4.34 5.66 3.68 6.32 3 7 C0 2.25 0 2.25 0 0 Z " fill="#52507E" transform="translate(287,393)"/>
<path d="M0 0 C0.66 0 1.32 0 2 0 C5.125 6.625 5.125 6.625 4 10 C0 3.375 0 3.375 0 0 Z " fill="#CACBE2" transform="translate(178,386)"/>
<path d="M0 0 C2.91227269 3.28804981 4.49701212 5.59885603 5 10 C3.0625 9.5 3.0625 9.5 1 8 C0.31209578 5.30341548 0.18053536 2.7982981 0 0 Z " fill="#9F9DC0" transform="translate(277,373)"/>
<path d="M0 0 C0.66 0 1.32 0 2 0 C2 0.99 2 1.98 2 3 C2.66 3 3.32 3 4 3 C4.99 5.31 5.98 7.62 7 10 C6.34 10 5.68 10 5 10 C5 9.01 5 8.02 5 7 C4.360625 6.773125 3.72125 6.54625 3.0625 6.3125 C1 5 1 5 0.25 2.375 C0.1675 1.59125 0.085 0.8075 0 0 Z " fill="#D0D0E7" transform="translate(168,366)"/>
<path d="M0 0 C0.95465783 2.16967689 1.14401212 3.56328793 0.3984375 5.82421875 C-0.35870385 7.5684743 -1.17609198 9.28627131 -2 11 C-2.33 11 -2.66 11 -3 11 C-2.25 3.375 -2.25 3.375 0 0 Z " fill="#1F1F57" transform="translate(343,318)"/>
<path d="M0 0 C0.66 0 1.32 0 2 0 C2 0.99 2 1.98 2 3 C2.66 3 3.32 3 4 3 C4.33 5.31 4.66 7.62 5 10 C1.32769295 6.92000054 0.43197635 4.7517398 0 0 Z " fill="#B3B4CE" transform="translate(144,314)"/>
<path d="M0 0 C0.66 0.33 1.32 0.66 2 1 C0.515 6.445 0.515 6.445 -1 12 C-1.33 12 -1.66 12 -2 12 C-2.17835515 7.45194365 -1.99785435 4.1205746 0 0 Z " fill="#3E3C7A" transform="translate(7,63)"/>
<path d="M0 0 C0.66 0 1.32 0 2 0 C4.43160605 3.36683915 5 4.73350364 5 9 C4.34 9 3.68 9 3 9 C2.01 6.03 1.02 3.06 0 0 Z " fill="#262662" transform="translate(226,491)"/>
<path d="M0 0 C0.66 0 1.32 0 2 0 C2 0.66 2 1.32 2 2 C2.66 2 3.32 2 4 2 C4.33 3.98 4.66 5.96 5 8 C2.21611025 6.29374499 1.14615794 5.52373261 0.25 2.3125 C0.1675 1.549375 0.085 0.78625 0 0 Z " fill="#BBBBD4" transform="translate(212,457)"/>
<path d="M0 0 C0.99 0 1.98 0 3 0 C3.33 2.31 3.66 4.62 4 7 C3.34 7 2.68 7 2 7 C2 6.01 2 5.02 2 4 C1.34 4 0.68 4 0 4 C0 2.68 0 1.36 0 0 Z " fill="#B3B4CE" transform="translate(201,435)"/>
<path d="M0 0 C1.33332095 2.6666419 0.67102033 4.16680303 0 7 C-0.66 7 -1.32 7 -2 7 C-2.33 7.99 -2.66 8.98 -3 10 C-3.33 10 -3.66 10 -4 10 C-4 8.35 -4 6.7 -4 5 C-3.01 5 -2.02 5 -1 5 C-0.67 3.35 -0.34 1.7 0 0 Z " fill="#9D9CBC" transform="translate(411,403)"/>
<path d="M0 0 C0.33 0.66 0.66 1.32 1 2 C0.06421005 4.35981813 -0.93347808 6.69631264 -2 9 C-2.66 8.01 -3.32 7.02 -4 6 C-3.25 3.375 -3.25 3.375 -2 1 C-1.34 0.67 -0.68 0.34 0 0 Z " fill="#3F3E86" transform="translate(12,53)"/>
<path d="M0 0 C0.99 0.33 1.98 0.66 3 1 C2.01 2.98 1.02 4.96 0 7 C-0.66 7 -1.32 7 -2 7 C-1.125 1.125 -1.125 1.125 0 0 Z " fill="#222159" transform="translate(403,423)"/>
<path d="M0 0 C1.32 0.33 2.64 0.66 4 1 C4.33 2.65 4.66 4.3 5 6 C3.68 5.67 2.36 5.34 1 5 C0.67 3.35 0.34 1.7 0 0 Z " fill="#4D4C80" transform="translate(174,385)"/>
<path d="M0 0 C1.37245106 2.74490212 0.93580311 4.12060581 0 7 C-2.0625 8.3125 -2.0625 8.3125 -4 9 C-2.94124926 5.59687262 -1.99097846 2.98646769 0 0 Z " fill="#AEAECC" transform="translate(322,370)"/>
<path d="M0 0 C0.66 0.33 1.32 0.66 2 1 C1.37240135 3.92879371 0.41377341 6.36095629 -1 9 C-2.0326802 6.21176345 -2.04509293 5.1322726 -1.0625 2.25 C-0.711875 1.5075 -0.36125 0.765 0 0 Z " fill="#3E3C70" transform="translate(349,302)"/>
<path d="M0 0 C0.66 0 1.32 0 2 0 C2.33 2.97 2.66 5.94 3 9 C0 6 0 6 -0.1875 2.8125 C-0.125625 1.884375 -0.06375 0.95625 0 0 Z " fill="#1C1B57" transform="translate(135,293)"/>
<path d="M0 0 C-1.65 1.65 -3.3 3.3 -5 5 C-5.66 3.68 -6.32 2.36 -7 1 C-4.53721199 -0.231394 -2.7204945 -0.07159196 0 0 Z " fill="#6C6999" transform="translate(575,658)"/>
<path d="M0 0 C0.66 0 1.32 0 2 0 C1.67 1.98 1.34 3.96 1 6 C0.01 6 -0.98 6 -2 6 C-1.49396008 3.83125748 -1.00016187 2.00032373 0 0 Z " fill="#333368" transform="translate(329,347)"/>
<path d="M0 0 C0.99 0.33 1.98 0.66 3 1 C2.01 2.98 1.02 4.96 0 7 C-0.66 6.34 -1.32 5.68 -2 5 C-1.46428571 1.46428571 -1.46428571 1.46428571 0 0 Z " fill="#3B3A71" transform="translate(335,336)"/>
</svg>
