<svg xmlns="http://www.w3.org/2000/svg" viewBox="0 0 474.54 474.54"><defs><style>.cls-1{fill:none;}.cls-2{fill:#6354b8;}</style></defs><g id="Layer_2" data-name="Layer 2"><g id="Layer_1-2" data-name="Layer 1"><rect class="cls-1" width="474.54" height="474.54" rx="100"/><rect class="cls-2" x="199.82" y="114.18" width="79.76" height="283.42" rx="30.08"/><path class="cls-2" d="M351.31,250.28c-13,33.35-19.11,56-35.64,87.78-7.94,15.28-17.29,16.48-17.29-1.57V134.2c0-11.06,1.82-19.11,16.2-19.38l65.58-.64c7.16,0,17.33,8.56,12.37,21.3C379.28,169.56,364.57,216.2,351.31,250.28Z"/><path class="cls-2" d="M128.48,250.28c13,33.35,19.12,56,35.64,87.78,7.95,15.28,17.3,16.48,17.3-1.57V134.2c0-11.06-1.83-19.11-16.2-19.38l-65.58-.64c-7.17,0-17.33,8.56-12.38,21.3C100.52,169.56,115.23,216.2,128.48,250.28Z"/></g></g></svg>