<svg xmlns="http://www.w3.org/2000/svg" viewBox="0 0 68.23 68.23"><defs><style>.cls-1{fill:#f6ae72;}.cls-2{fill:#0b0806;}.cls-3{fill:#030302;}</style></defs><g id="Layer_2" data-name="Layer 2"><g id="Layer_1-2" data-name="Layer 1"><circle class="cls-1" cx="34.12" cy="34.12" r="34.12"/><circle class="cls-2" cx="20.05" cy="32.69" r="3.44"/><circle class="cls-2" cx="22.99" cy="39.94" r="2.77"/><circle class="cls-2" cx="26.23" cy="46.92" r="2.07"/><circle class="cls-2" cx="29.72" cy="52.17" r="1.63"/><rect class="cls-2" x="14.77" y="16.95" width="11.46" height="2.89" rx="0.25"/><rect class="cls-2" x="14.8" y="20.84" width="11.46" height="2.89" rx="0.25"/><rect class="cls-2" x="14.8" y="24.69" width="11.46" height="2.89" rx="0.25"/><path class="cls-3" d="M53.65,16.3c-1,0-2.64.05-4.77.16s-3.73.15-4.78.15h-.92c-.17.06-.26.35-.26.86q0,2.1.06,6.3t.06,6.3q0,1.26-2.7,6.83c-.57,1.16-1.1,2.23-1.62,3.24-.65,1.28-1.26,2.45-1.83,3.48L32,56.46s.1.07.16.09c.37.07,1.84.11,4.42.11,2,0,3.56,0,4.53-.11a2.3,2.3,0,0,0,.74-.13,3,3,0,0,0,.38-.7q4.22-8.2,6.46-12.28c.6-1.2,1.13-2.29,1.64-3.33,2.66-5.49,4-8.76,4-9.76q0-2.24.07-6.69T54.51,17C54.51,16.53,54.23,16.3,53.65,16.3Z"/></g></g></svg>